<svg xmlns="http://www.w3.org/2000/svg" viewBox="0 0 20.62 32"><defs><style>.cls-1{fill:#231f20;}</style></defs><title>bbq</title><g id="Layer_2" data-name="Layer 2"><g id="Layer_1-2" data-name="Layer 1"><path class="cls-1" d="M20.18,10.6H18.82a8.55,8.55,0,0,0-6-7.73V.43A.44.44,0,0,0,12.35,0H8.27a.44.44,0,0,0-.44.43V2.87a8.54,8.54,0,0,0-6,7.73H.43A.43.43,0,0,0,0,11a.44.44,0,0,0,.43.44H1.8A8.53,8.53,0,0,0,7.15,19L5.4,23.19h0L3.64,27.41a2.85,2.85,0,0,0-.42,0,2.32,2.32,0,1,0,1.23.36l1.64-3.94h8.38l2.82,7.08a.43.43,0,0,0,.4.27.45.45,0,0,0,.16,0,.43.43,0,0,0,.24-.56L13.47,19a8.52,8.52,0,0,0,5.35-7.48h1.36a.44.44,0,0,0,.44-.44A.43.43,0,0,0,20.18,10.6ZM4.66,29.69a1.45,1.45,0,1,1-1.44-1.45H3.3l-.53,1.27a.45.45,0,0,0,.24.57.45.45,0,0,0,.16,0,.43.43,0,0,0,.4-.27l.54-1.29A1.44,1.44,0,0,1,4.66,29.69ZM8.7.87h3.22V2.65a8.72,8.72,0,0,0-3.22,0Zm1.61,2.5A7.66,7.66,0,0,1,18,10.6H2.67A7.66,7.66,0,0,1,10.31,3.37Zm3.81,19.55H6.45L8,19.23a8.52,8.52,0,0,0,2.33.33,8.65,8.65,0,0,0,2.34-.33ZM10.31,18.7a7.66,7.66,0,0,1-7.64-7.23H18A7.67,7.67,0,0,1,10.31,18.7Z"/></g></g></svg>