<svg xmlns="http://www.w3.org/2000/svg" viewBox="0 0 32 26.15"><defs><style>.cls-1{fill:#231f20;}</style></defs><title>beach_towel</title><g id="Layer_2" data-name="Layer 2"><g id="Layer_1-2" data-name="Layer 1"><path class="cls-1" d="M31.55,2.79a.44.44,0,0,0-.44.44V5H28.06V3.62A3.62,3.62,0,0,0,24.45,0H7.55c-2,0-3.61,2.08-3.61,4.63V5h-3V3.23a.44.44,0,0,0-.44-.44A.45.45,0,0,0,0,3.23V5.46a.45.45,0,0,0,.45.45H3.94V22.54a.44.44,0,0,0,.44.44H7.15a3.61,3.61,0,0,0,3.57,3.17H24.45a3.61,3.61,0,0,0,3.61-3.61V5.91h3.49A.45.45,0,0,0,32,5.46V3.23A.45.45,0,0,0,31.55,2.79ZM4.83,4.63c0-1.85,1-3.38,2.27-3.67V5H4.83Zm0,1.28H7.1V22.09H4.83ZM27.17,22.54a2.72,2.72,0,0,1-2.72,2.72H10.72A2.72,2.72,0,0,1,8,22.54V.89H24.45a2.73,2.73,0,0,1,2.72,2.73Z"/></g></g></svg>