<svg xmlns="http://www.w3.org/2000/svg" viewBox="0 0 32 31.01"><defs><style>.cls-1{fill:#231f20;}</style></defs><title>car-park</title><g id="Layer_2" data-name="Layer 2"><g id="Layer_1-2" data-name="Layer 1"><path class="cls-1" d="M31.42,0H.58A.58.58,0,0,0,0,.58V30.42A.59.59,0,0,0,.58,31H31.42a.59.59,0,0,0,.58-.59V.58A.58.58,0,0,0,31.42,0Zm-.58,29.84H1.16V1.16H30.84Z"/><path class="cls-1" d="M12.49,24.55a.59.59,0,0,0,.58-.59V15.85h5.17a4.6,4.6,0,1,0,0-9.19H12.49a.58.58,0,0,0-.59.58V24A.59.59,0,0,0,12.49,24.55Zm.58-16.72h5.17a3.43,3.43,0,1,1,0,6.86H13.07Z"/></g></g></svg>