<svg xmlns="http://www.w3.org/2000/svg" viewBox="0 0 21.73 32"><defs><style>.cls-1{fill:#231f20;}</style></defs><title>chef</title><g id="Layer_2" data-name="Layer 2"><g id="Layer_1-2" data-name="Layer 1"><path class="cls-1" d="M17.81,24.71H15.35a.3.3,0,0,0-.25.13c-1.11,1.65-2.69,1.87-4.23,1.87s-3.12-.22-4.23-1.87a.33.33,0,0,0-.26-.13H3.93C1.76,24.71,0,27.31,0,30.52v1.17A.31.31,0,0,0,.31,32H21.43a.3.3,0,0,0,.3-.31V30.52C21.73,27.31,20,24.71,17.81,24.71ZM.61,30.52c0-2.87,1.49-5.2,3.32-5.2H6.22a5.2,5.2,0,0,0,4.65,2,6.06,6.06,0,0,0,3.41-.83v4.89H.61Zm20.51.87H14.89V26a4.69,4.69,0,0,0,.62-.7h2.3c1.82,0,3.31,2.33,3.31,5.2Z"/><path class="cls-1" d="M5.2,6.06v4.17a8,8,0,0,0-2.29,4.36c0,.07,0,.14,0,.21v0a8.42,8.42,0,0,0-.09,1H2.72a1.55,1.55,0,0,0-1,1,2.59,2.59,0,0,0,0,1.61,2.08,2.08,0,0,0,2.13,1.73,8.23,8.23,0,0,0,7,4.84,8.23,8.23,0,0,0,7-4.84,1,1,0,0,0,.24,0A2.16,2.16,0,0,0,20,18.46a2.46,2.46,0,0,0-.16-1.9,1.5,1.5,0,0,0-.87-.72H19A8.22,8.22,0,0,0,18.7,14v0s0,0,0-.07a8,8,0,0,0-2.15-3.7V6.06C18.66,5.81,20.07,5,20.07,4c0-1.19-1.93-2.08-4.53-2.14C15.23.78,13.29,0,10.78,0S6.33.77,6,1.84c-2.63,0-4.57,1-4.57,2.13S3,5.86,5.2,6.06ZM18,13.94a7.69,7.69,0,0,1-3.52.69,7.74,7.74,0,0,1-6.35-3.26.33.33,0,0,0-.26-.13h0a.29.29,0,0,0-.25.17,5.75,5.75,0,0,1-4.09,3.07,7.63,7.63,0,0,1,2.09-3.75H16.11A7.84,7.84,0,0,1,18,13.94Zm1.31,2.92a2,2,0,0,1,.1,1.44c-.21.74-.76,1.3-1.3,1.3l-.19,0-.09,0a.31.31,0,0,0-.4.15,7.67,7.67,0,0,1-6.6,4.72,7.67,7.67,0,0,1-6.61-4.72A.33.33,0,0,0,4,19.52a.27.27,0,0,0-.12,0l-.07,0c-.57.17-1.26-.44-1.5-1.27a2,2,0,0,1,0-1.24.92.92,0,0,1,.59-.62.69.69,0,0,1,.2,0h0a.43.43,0,0,0,.22-.09.31.31,0,0,0,.09-.22V16a8.67,8.67,0,0,1,.06-.89,6.47,6.47,0,0,0,4.51-3,8.38,8.38,0,0,0,6.56,3.12,8.34,8.34,0,0,0,3.67-.71A8.31,8.31,0,0,1,18.33,16v.06a.32.32,0,0,0,.32.31.63.63,0,0,1,.19,0A.88.88,0,0,1,19.35,16.86ZM6.25,2.45h.07a.31.31,0,0,0,.27-.31c0-.72,1.72-1.52,4.19-1.52s4.15.78,4.18,1.5v0a.31.31,0,0,0,.31.31c2.47,0,4.19.8,4.19,1.53,0,.58-1.22,1.3-3.26,1.48a.31.31,0,0,0-.28.31v4.3H5.82V5.78a.32.32,0,0,0-.29-.31C3.39,5.33,2.06,4.58,2.06,4S3.78,2.45,6.25,2.45Z"/><path class="cls-1" d="M12.8,29.5a.55.55,0,1,0,0,1.09.55.55,0,1,0,0-1.09Z"/><path class="cls-1" d="M12.8,29.06a.55.55,0,0,0,.55-.55A.55.55,0,0,0,12.8,28a.55.55,0,0,0-.55.55A.54.54,0,0,0,12.8,29.06Z"/></g></g></svg>