<svg xmlns="http://www.w3.org/2000/svg" viewBox="0 0 32 17.52"><defs><style>.cls-1{fill:#231f20;}</style></defs><title>convertible-sofa-two-places</title><g id="Layer_2" data-name="Layer 2"><g id="Layer_1-2" data-name="Layer 1"><path class="cls-1" d="M29.86,4.81V.41A.41.41,0,0,0,29.45,0H2.55a.41.41,0,0,0-.41.41V4.75C1.09,4.81,0,5.17,0,6v7.76a.41.41,0,0,0,.41.41H2.79v2.93a.41.41,0,1,0,.81,0V14.18H28.4v2.93a.41.41,0,1,0,.81,0V14.18h2.38a.41.41,0,0,0,.41-.41V6.07C32,5.22,30.91,4.87,29.86,4.81ZM29,.81v4c-1,.08-2,.43-2,1.25v4.44H5V6C5,5.2,4,4.84,3,4.76V.81Zm2.15,12.55H.81V6c0-.14.57-.46,1.68-.46s1.68.32,1.68.46v4.91a.4.4,0,0,0,.41.4H27.42a.4.4,0,0,0,.41-.4V6.07c0-.14.57-.46,1.68-.46s1.68.32,1.68.46Z"/></g></g></svg>