<svg xmlns="http://www.w3.org/2000/svg" viewBox="0 0 32 27.48"><defs><style>.cls-1{fill:#231f20;}</style></defs><title>convertible-sofa-one-place</title><g id="Layer_2" data-name="Layer 2"><g id="Layer_1-2" data-name="Layer 1"><path class="cls-1" d="M28.84,7.58V.5a.51.51,0,0,0-.51-.5H3.67a.51.51,0,0,0-.51.5v7C1.58,7.64,0,8.17,0,9.38v12.3a.5.5,0,0,0,.5.5H4.31V27a.51.51,0,0,0,1,0v-4.8H26.68V27a.51.51,0,0,0,1,0v-4.8H31.5a.54.54,0,0,0,.5-.54V9.43C32,8.21,30.41,7.69,28.84,7.58ZM27.83,1V7.57c-1.66.06-3.44.57-3.44,1.86v7.22H7.61V9.38c0-1.29-1.78-1.79-3.44-1.86V1ZM31,21.18H1V9.38c0-.36,1.06-.86,2.8-.86s2.8.5,2.8.86v7.77a.5.5,0,0,0,.5.51H24.89a.55.55,0,0,0,.51-.55V9.43c0-.36,1.06-.87,2.79-.87s2.8.51,2.8.87Z"/></g></g></svg>