<svg xmlns="http://www.w3.org/2000/svg" viewBox="0 0 42.08 28.71"><defs><style>.cls-1{fill:#231f20;}</style></defs><title>clean_daily</title><g id="Layer_2" data-name="Layer 2"><g id="Layer_1-2" data-name="Layer 1"><path class="cls-1" d="M20.94,16.07c.07.19,0,0,0,0a.35.35,0,0,0,0-.08l-.05-.07-.07-.05-.07-.05h0a.16.16,0,0,0-.1,0l-.07,0-.11,0H20.3l-.08.05-.06,0,0,.05a.86.86,0,0,1-.07.1h0l-1.14,2.52h0l-1.14,2.81A.45.45,0,0,0,18,22a.47.47,0,0,0,.17,0,.44.44,0,0,0,.42-.28l1-2.52h1.65l1,2.48a.45.45,0,0,0,.42.29.51.51,0,0,0,.17,0,.46.46,0,0,0,.26-.59ZM20,18.28l.48-1.16.45,1.17Z"/><path class="cls-1" d="M32,16.25v12a.44.44,0,0,1-.44.44H.44A.44.44,0,0,1,0,28.27V9.86a.44.44,0,0,1,.44-.44H26l-.16.88H.88V27.83H31.12V16.25"/><path class="cls-1" d="M16.16,3.22a1.61,1.61,0,1,1,1.6-1.61A1.61,1.61,0,0,1,16.16,3.22Zm0-2.34a.73.73,0,1,0,.73.73A.74.74,0,0,0,16.16.88Z"/><path class="cls-1" d="M7.9,10.3a.43.43,0,0,1-.3-.13.42.42,0,0,1,0-.62L15.85,1.3a.44.44,0,1,1,.62.62L8.21,10.17A.44.44,0,0,1,7.9,10.3Z"/><path class="cls-1" d="M24.43,10.3a.48.48,0,0,1-.31-.13L15.87,1.92a.44.44,0,0,1,.62-.62l8.25,8.25a.44.44,0,0,1,0,.62A.48.48,0,0,1,24.43,10.3Z"/><path class="cls-1" d="M12.56,22H9.3A.4.4,0,0,1,9,21.89a.44.44,0,0,1-.13-.31l.06-5.39a.44.44,0,0,1,.44-.43h0a.44.44,0,0,1,.44.44l-.06,4.94h2.82a.44.44,0,0,1,.44.44A.44.44,0,0,1,12.56,22Z"/><path class="cls-1" d="M16.92,22h-3.3a.44.44,0,0,1-.44-.44l0-5.35a.44.44,0,0,1,.13-.31.46.46,0,0,1,.31-.13H17a.44.44,0,0,1,0,.88H14.09l0,4.48h2.86a.44.44,0,1,1,0,.87Z"/><path class="cls-1" d="M16,19.32h0l-2.41,0a.44.44,0,0,1-.43-.45.44.44,0,0,1,.44-.43h0l2.41,0a.43.43,0,0,1,.43.44A.44.44,0,0,1,16,19.32Z"/><path class="cls-1" d="M6.26,22a3,3,0,0,1-2.87-3.12,3,3,0,0,1,2.87-3.13,2.74,2.74,0,0,1,1.63.55A.44.44,0,0,1,8,16.9a.44.44,0,0,1-.61.1,1.86,1.86,0,0,0-1.11-.38,2.14,2.14,0,0,0-2,2.25,2.13,2.13,0,0,0,2,2.24,1.87,1.87,0,0,0,1.11-.37.44.44,0,1,1,.52.7A2.69,2.69,0,0,1,6.26,22Z"/><path class="cls-1" d="M27.87,15.76a.44.44,0,0,0-.43.44v4l-3-4.27a.46.46,0,0,0-.5-.17.45.45,0,0,0-.31.42v5.39a.44.44,0,0,0,.44.44.44.44,0,0,0,.44-.44v-4l3,4.28a.45.45,0,0,0,.36.19L28,22a.43.43,0,0,0,.31-.42V16.2A.44.44,0,0,0,27.87,15.76Z"/><path class="cls-1" d="M34,16.55a8.13,8.13,0,1,1,5.75-2.38.22.22,0,0,1-.32,0,.24.24,0,0,1,0-.32A7.67,7.67,0,1,0,34,16.1a.23.23,0,1,1,0,.45Z"/><path class="cls-1" d="M40.85,15.54H38.24a.22.22,0,0,1-.22-.23v-2.6a.22.22,0,0,1,.38-.16l2.6,2.6a.21.21,0,0,1,0,.25A.22.22,0,0,1,40.85,15.54Zm-2.38-.45H40.3l-1.83-1.84Z"/><path class="cls-1" d="M33.24,10.67h-2.4a.22.22,0,0,1-.22-.22c0-.88.85-1.51,1.54-2,.4-.3.86-.63.86-.85a1,1,0,0,0-2,0,.23.23,0,1,1-.45,0,1.43,1.43,0,0,1,2.85,0c0,.44-.49.8-1,1.21s-1.19.87-1.33,1.42h2.14a.23.23,0,1,1,0,.45Z"/><path class="cls-1" d="M36.09,10.67a.22.22,0,0,1-.22-.22V9.64H33.74a.23.23,0,0,1-.2-.13.2.2,0,0,1,0-.23l2.34-3a.22.22,0,0,1,.25-.08.23.23,0,0,1,.15.22V9.19h.75a.23.23,0,1,1,0,.45h-.75v.81A.22.22,0,0,1,36.09,10.67ZM34.2,9.19h1.67V7.05Z"/></g></g></svg>