<?xml version="1.0" encoding="UTF-8"?>
<svg width="49px" height="49px" viewBox="0 0 49 49" version="1.1" xmlns="http://www.w3.org/2000/svg" xmlns:xlink="http://www.w3.org/1999/xlink">
    <!-- Generator: Sketch 51.3 (57544) - http://www.bohemiancoding.com/sketch -->
    <title>Shape</title>
    <desc>Created with Sketch.</desc>
    <defs></defs>
    <g id="Moodboard" stroke="none" stroke-width="1" fill="none" fill-rule="evenodd">
        <g id="Artboard" transform="translate(-396.000000, -199.000000)" fill="#1A171B" fill-rule="nonzero">
            <g id="1" transform="translate(13.000000, 95.000000)">
                <g id="Clipped" transform="translate(23.000000, 0.000000)">
                    <g id="Group">
                        <path d="M407.658,132.727 C407.256,132.727 406.93,133.052 406.93,133.454 L406.93,136.498 L405.279,136.498 L399.253,115.545 L399.253,107.555 L399.253,105.331 C399.253,104.929 398.928,104.602 398.526,104.602 C398.124,104.602 397.799,104.928 397.799,105.331 L397.799,106.826 L370.972,106.826 L370.972,105.331 C370.972,104.929 370.647,104.602 370.245,104.602 C369.843,104.602 369.517,104.928 369.517,105.331 L369.517,107.555 L369.517,115.545 L363.491,136.498 L361.84,136.498 L361.84,133.454 C361.84,133.053 361.515,132.727 361.112,132.727 C360.71,132.727 360.385,133.052 360.385,133.454 L360.385,137.226 L360.385,147.402 L360.385,151.876 C360.385,152.277 360.71,152.603 361.112,152.603 C361.514,152.603 361.84,152.278 361.84,151.876 L361.84,148.13 L406.93,148.13 L406.93,151.876 C406.93,152.277 407.255,152.603 407.658,152.603 C408.06,152.603 408.385,152.278 408.385,151.876 L408.385,147.402 L408.385,137.226 L408.385,133.454 C408.385,133.052 408.06,132.727 407.658,132.727 Z M370.793,116.375 L372.823,116.375 C372.941,116.86 373.203,117.294 373.59,117.608 L374.833,118.621 C374.833,118.621 374.833,118.621 374.834,118.621 C376.04,119.602 377.485,120.094 378.931,120.094 C380.377,120.094 381.822,119.603 383.029,118.621 L384.272,117.608 C384.314,117.574 384.346,117.53 384.385,117.492 C384.425,117.53 384.456,117.574 384.499,117.608 L385.743,118.621 C385.743,118.621 385.743,118.621 385.744,118.621 C386.95,119.602 388.395,120.094 389.84,120.094 C391.287,120.094 392.732,119.603 393.938,118.621 L395.181,117.608 C395.568,117.294 395.831,116.86 395.949,116.375 L397.979,116.375 L400.497,125.132 C391.405,122.89 377.369,122.89 368.275,125.132 L370.793,116.375 Z M374.204,115.801 C374.204,115.527 374.315,115.28 374.509,115.121 L378.531,111.846 C378.774,111.649 379.089,111.649 379.331,111.846 L383.354,115.121 C383.547,115.279 383.658,115.526 383.658,115.801 C383.658,116.074 383.547,116.322 383.353,116.48 L382.11,117.493 C380.207,119.042 377.652,119.04 375.751,117.493 L374.508,116.48 C374.315,116.323 374.204,116.075 374.204,115.801 Z M385.114,115.801 C385.114,115.527 385.224,115.28 385.419,115.121 L389.44,111.846 C389.683,111.649 389.998,111.649 390.24,111.846 L394.264,115.121 C394.457,115.279 394.568,115.526 394.568,115.801 C394.568,116.074 394.457,116.322 394.263,116.48 L393.02,117.493 C391.117,119.042 388.562,119.04 386.661,117.493 L385.417,116.48 C385.224,116.323 385.114,116.075 385.114,115.801 Z M397.799,108.281 L397.799,114.92 L395.845,114.92 C395.702,114.563 395.484,114.24 395.181,113.994 L391.158,110.719 C390.382,110.086 389.298,110.087 388.522,110.719 L384.5,113.994 C384.458,114.029 384.426,114.073 384.387,114.111 C384.347,114.073 384.316,114.029 384.274,113.994 L380.25,110.719 C379.474,110.086 378.391,110.087 377.614,110.719 L373.593,113.994 C373.29,114.24 373.071,114.562 372.928,114.92 L370.974,114.92 L370.974,108.281 L397.799,108.281 Z M367.809,126.752 C376.92,124.273 391.851,124.273 400.963,126.752 L403.765,136.497 L365.005,136.497 L367.809,126.752 Z M372.902,146.674 L370.705,146.674 L361.841,146.674 L361.841,137.952 L406.931,137.952 L406.931,146.674 L372.902,146.674 Z" id="Shape"></path>
                    </g>
                </g>
            </g>
        </g>
    </g>
</svg>