<svg xmlns="http://www.w3.org/2000/svg" viewBox="0 0 21.49 32"><defs><style>.cls-1{fill:#231f20;}</style></defs><title>equipped-kitchen</title><g id="Layer_2" data-name="Layer 2"><g id="Layer_1-2" data-name="Layer 1"><path class="cls-1" d="M8.51,21.75a.43.43,0,0,0-.43.43v1.89a.43.43,0,1,0,.86,0V22.18A.43.43,0,0,0,8.51,21.75Z"/><path class="cls-1" d="M13,24.51a.44.44,0,0,0,.44-.44V22.18a.44.44,0,0,0-.87,0v1.89A.44.44,0,0,0,13,24.51Z"/><path class="cls-1" d="M21.06,16.23H.43a.44.44,0,0,0-.43.44v2.76a.43.43,0,0,0,.43.43H.67V31.57a.44.44,0,0,0,.44.43H20.39a.43.43,0,0,0,.43-.43V19.86h.24a.43.43,0,0,0,.43-.43V16.67A.43.43,0,0,0,21.06,16.23ZM.87,17.1H20.63V19H.87Zm.67,2.76h8.77V31.13H1.54ZM20,31.13H11.18V19.86H20Z"/><path class="cls-1" d="M1.11,9.72H20.39a.44.44,0,0,0,.43-.44V.43A.43.43,0,0,0,20.39,0H1.11A.44.44,0,0,0,.67.43V9.28A.44.44,0,0,0,1.11,9.72ZM20,8.85H11.18v-8H20ZM1.54.87h8.77v8H1.54Z"/><path class="cls-1" d="M8.51,5.18a.43.43,0,0,0-.43.43V6.7a.43.43,0,1,0,.86,0V5.61A.43.43,0,0,0,8.51,5.18Z"/><path class="cls-1" d="M13,7.13a.44.44,0,0,0,.44-.43V5.61a.44.44,0,0,0-.87,0V6.7A.43.43,0,0,0,13,7.13Z"/></g></g></svg>