<svg xmlns="http://www.w3.org/2000/svg" viewBox="0 0 32 27.38"><defs><style>.cls-1{fill:#231f20;}</style></defs><title>ventilator</title><g id="Layer_2" data-name="Layer 2"><g id="Layer_1-2" data-name="Layer 1"><path class="cls-1" d="M.44,12H19a.48.48,0,0,0,.18,0,6,6,0,1,0-5.91-8.27A.43.43,0,0,0,14,4a5.12,5.12,0,1,1,4.72,7.1H.44a.43.43,0,0,0-.44.43A.44.44,0,0,0,.44,12Z"/><path class="cls-1" d="M23.31,15.46a.37.37,0,0,0-.18,0H.44a.43.43,0,0,0-.44.43.44.44,0,0,0,.44.44H22.92a5.11,5.11,0,1,1-4.72,7.09.43.43,0,1,0-.8.34,6,6,0,1,0,5.91-8.26Z"/><path class="cls-1" d="M31.09,2.75A5.93,5.93,0,0,0,27.37.08a.44.44,0,0,0-.52.33.43.43,0,0,0,.32.52,5.11,5.11,0,0,1,1.55,9.32,5.08,5.08,0,0,1-3.86.64.44.44,0,1,0-.2.85A6.33,6.33,0,0,0,26,11.9a6,6,0,0,0,5.81-4.64A5.91,5.91,0,0,0,31.09,2.75Z"/></g></g></svg>