<svg xmlns="http://www.w3.org/2000/svg" viewBox="0 0 32 35.06"><defs><style>.cls-1{fill:#231f20;}</style></defs><title>food_delivery</title><g id="Layer_2" data-name="Layer 2"><g id="Layer_1-2" data-name="Layer 1"><path class="cls-1" d="M28.16,26.58H9.26a.43.43,0,0,1-.43-.43.44.44,0,0,1,.43-.44H27.81l3.33-15.65a.44.44,0,0,1,.52-.33.43.43,0,0,1,.33.51l-3.4,16A.44.44,0,0,1,28.16,26.58Z"/><path class="cls-1" d="M13.71,35.06a2.49,2.49,0,1,1,2.48-2.49A2.49,2.49,0,0,1,13.71,35.06Zm0-4.1a1.62,1.62,0,1,0,1.61,1.61A1.61,1.61,0,0,0,13.71,31Z"/><path class="cls-1" d="M24,35.06a2.49,2.49,0,1,1,2.47-2.49A2.5,2.5,0,0,1,24,35.06ZM24,31a1.62,1.62,0,1,0,1.61,1.61A1.62,1.62,0,0,0,24,31Z"/><path class="cls-1" d="M27.93,29.29H9.81A.44.44,0,0,1,9.38,29l-5-23H.43A.43.43,0,0,1,0,5.51a.44.44,0,0,1,.43-.44h4.3a.44.44,0,0,1,.43.34l5,23H27.93a.44.44,0,0,1,.43.44A.43.43,0,0,1,27.93,29.29Z"/><path class="cls-1" d="M12.91,13c-2.85,0-5.17-1.86-5.17-4.15s2.32-4.16,5.17-4.16a.29.29,0,0,1,0,.57c-2.54,0-4.6,1.61-4.6,3.59s2.06,3.58,4.6,3.58a5.55,5.55,0,0,0,2.58-.61.28.28,0,0,1,.26.5A6.14,6.14,0,0,1,12.91,13Z"/><path class="cls-1" d="M24.15,13a6.21,6.21,0,0,1-2.85-.68.3.3,0,0,1-.12-.39.29.29,0,0,1,.39-.11,5.55,5.55,0,0,0,2.58.61c2.54,0,4.6-1.61,4.6-3.58s-2.06-3.59-4.6-3.59a.29.29,0,1,1,0-.57c2.85,0,5.17,1.87,5.17,4.16S27,13,24.15,13Z"/><path class="cls-1" d="M14,5.3h0l-1,0a.28.28,0,0,1-.27-.3.27.27,0,0,1,.29-.27l.69,0a3.66,3.66,0,0,1,0-.57C13.56,1.86,15.88,0,18.73,0S23.9,1.86,23.9,4.15a3,3,0,0,1,0,.52l.61,0a.28.28,0,0,1,.27.3.29.29,0,0,1-.29.27l-.94,0a.27.27,0,0,1-.22-.11.29.29,0,0,1,0-.24,2.82,2.82,0,0,0,.09-.71c0-2-2.07-3.59-4.61-3.59s-4.6,1.61-4.6,3.59a2.59,2.59,0,0,0,.07.63l0,.16a.26.26,0,0,1-.05.25A.27.27,0,0,1,14,5.3Z"/><path class="cls-1" d="M24.46,20.59H12.91a.29.29,0,0,1-.28-.28v-7.6a.29.29,0,0,1,.28-.29.28.28,0,0,1,.28.29V20h11V12.71a.29.29,0,0,1,.28-.29.28.28,0,0,1,.28.29v7.6A.28.28,0,0,1,24.46,20.59Z"/><path class="cls-1" d="M24.57,18.51H12.91a.29.29,0,0,1,0-.57H24.57a.29.29,0,0,1,0,.57Z"/></g></g></svg>