<svg xmlns="http://www.w3.org/2000/svg" viewBox="0 0 19.39 32"><defs><style>.cls-1{fill:#231f20;}</style></defs><title>fridge</title><g id="Layer_2" data-name="Layer 2"><g id="Layer_1-2" data-name="Layer 1"><path class="cls-1" d="M19,0H.44A.44.44,0,0,0,0,.44V31.56A.44.44,0,0,0,.44,32H19a.44.44,0,0,0,.44-.44V.44A.44.44,0,0,0,19,0Zm-.44.88V11.65H.89V.88ZM.89,31.11V12.54H18.51V31.11Z"/><path class="cls-1" d="M3.67,13.92a.44.44,0,0,0-.44.45V27.5a.44.44,0,0,0,.44.44.44.44,0,0,0,.44-.44V14.37A.45.45,0,0,0,3.67,13.92Z"/><path class="cls-1" d="M3.67,9.68a.45.45,0,0,0,.44-.45V4.93a.44.44,0,0,0-.44-.44.44.44,0,0,0-.44.44v4.3A.45.45,0,0,0,3.67,9.68Z"/></g></g></svg>