<svg xmlns="http://www.w3.org/2000/svg" viewBox="0 0 31.48 32.28"><defs><style>.cls-1,.cls-2{fill:#231f20;}.cls-2,.cls-3{stroke:#231f20;stroke-miterlimit:10;}.cls-2{stroke-width:0.5px;}.cls-3{fill:none;stroke-width:0.75px;}</style></defs><title>whirpool</title><g id="Layer_2" data-name="Layer 2"><g id="Layer_1-2" data-name="Layer 1"><path class="cls-1" d="M15.74,19.46C6.92,19.46,0,16.62,0,13S6.92,6.52,15.74,6.52,31.48,9.36,31.48,13,24.57,19.46,15.74,19.46Zm0-11.89C7,7.57,1.05,10.37,1.05,13S7,18.41,15.74,18.41,30.43,15.61,30.43,13,24.53,7.57,15.74,7.57Z"/><path class="cls-1" d="M15.74,16.59c-5.62,0-11.3-1.24-11.3-3.6s5.68-3.6,11.3-3.6S27,10.62,27,13,21.36,16.59,15.74,16.59Zm0-6.16C9.48,10.43,5.49,12,5.49,13s4,2.56,10.25,2.56S26,14,26,13,22,10.43,15.74,10.43Z"/><path class="cls-1" d="M15.74,32.28C6.92,32.28,0,29.44,0,25.82V13a.52.52,0,0,1,.52-.52.52.52,0,0,1,.53.52V25.82c0,2.61,5.9,5.42,14.69,5.42s14.69-2.81,14.69-5.42V13a.52.52,0,0,1,.53-.52.52.52,0,0,1,.52.52V25.82C31.48,29.44,24.57,32.28,15.74,32.28Z"/><path class="cls-2" d="M5.35,27.11"/><path class="cls-2" d="M10.47,28.68"/><path class="cls-2" d="M15.63,29.52"/><path class="cls-2" d="M20.69,28.68"/><path class="cls-2" d="M25.81,27.11"/><circle class="cls-3" cx="14.29" cy="12.3" r="1.12"/><circle class="cls-3" cx="20.22" cy="3.16" r="2.79"/><circle class="cls-3" cx="11.83" cy="2.01" r="1.15"/></g></g></svg>