<svg xmlns="http://www.w3.org/2000/svg" viewBox="0 0 24.55 32"><defs><style>.cls-1{fill:#231f20;}</style></defs><title>kids_club</title><g id="Layer_2" data-name="Layer 2"><g id="Layer_1-2" data-name="Layer 1"><path class="cls-1" d="M9.93,6.53a1.15,1.15,0,1,0,0-2.29,1.15,1.15,0,0,0,0,2.29Zm0-1.37a.22.22,0,0,1,.22.22c0,.24-.44.24-.44,0A.22.22,0,0,1,9.93,5.16Z"/><path class="cls-1" d="M14.25,6.53a1.15,1.15,0,1,0,0-2.29,1.15,1.15,0,0,0,0,2.29Zm0-1.37a.22.22,0,0,1,.22.22c0,.24-.44.25-.44,0A.22.22,0,0,1,14.25,5.16Z"/><path class="cls-1" d="M12.26,15.84a1.15,1.15,0,1,0,0-2.29,1.15,1.15,0,0,0,0,2.29Zm0-1.37a.22.22,0,0,1,.22.22c0,.24-.44.24-.44,0A.22.22,0,0,1,12.26,14.47Z"/><path class="cls-1" d="M12.26,18.87a1.15,1.15,0,1,0-1.14-1.14A1.15,1.15,0,0,0,12.26,18.87Zm0-1.36a.22.22,0,0,1,.22.22c0,.24-.44.24-.44,0A.22.22,0,0,1,12.26,17.51Z"/><path class="cls-1" d="M24.05,7.19a2.74,2.74,0,0,0-3.76-.94l-.52.35a.46.46,0,0,0-.59-.13A.47.47,0,0,0,19,7.1L17.66,8a5.74,5.74,0,0,0,.43-2.16A5.83,5.83,0,1,0,6.86,8L4.26,6.25A2.75,2.75,0,0,0,.5,7.19,2.75,2.75,0,0,0,1.12,11L5.5,13.9s.06,0,.09,0l1.54,1v4.35L5.67,22.17l0,0L2.86,27.73a2.93,2.93,0,0,0,1.19,4A2.8,2.8,0,0,0,5.27,32,3.06,3.06,0,0,0,8,30.3l2.78-5.53h0l1.54-3.06,3.37,6.64,1,2A3,3,0,0,0,19.3,32a2.68,2.68,0,0,0,1.23-.29,3,3,0,0,0,1.19-4l-.31-.62a.44.44,0,0,0,0-.32.4.4,0,0,0-.29-.26L20.82,26l-1.89-3.75,0,0-1.48-2.92V14.94l1.54-1s.06,0,.08,0L21.94,12a.46.46,0,0,0,.29.13.48.48,0,0,0,.23-.07.45.45,0,0,0,.2-.53l.77-.51A2.74,2.74,0,0,0,24.05,7.19ZM12.26.92a4.91,4.91,0,1,1-4.9,4.9A4.91,4.91,0,0,1,12.26.92Zm0,10.73A5.84,5.84,0,0,0,16.4,9.92h0l3.06-2,2,3.33-1,.69a.35.35,0,0,0-.13.05l-3.56,2.35s0,0,0,0l-.07.06-.05.07,0,.09s0,.06,0,.09V19.4a.49.49,0,0,0,.08.24l3.62,7.14-3.6,1.43-.16-.32-1.78-3.52s0,0,0,0l-2-3.84a.46.46,0,0,0-.35-.24h-.12a.49.49,0,0,0-.37.24L8,28.16l-3.6-1.43L8,19.59H8a.41.41,0,0,0,0-.22V14.69s0,0,0,0a.24.24,0,0,0,0-.08l0-.09,0-.06-.08-.08,0,0L4.28,12a.31.31,0,0,0-.12-.05L3,11.17,5,7.84,8.11,9.89A5.79,5.79,0,0,0,12.26,11.65Zm-11-4A1.84,1.84,0,0,1,3.75,7l.48.31-2,3.33-.63-.42A1.84,1.84,0,0,1,1.27,7.69ZM7.12,29.88a2,2,0,0,1-2.66,1,2,2,0,0,1-.78-2.73l.3-.59L7.57,29Zm13,1a2,2,0,0,1-2.66-1L17,29l3.6-1.43.27.55A2,2,0,0,1,20.11,30.89Zm2.82-20.65-.72.47-2-3.33L20.8,7a1.82,1.82,0,0,1,2.48.67A1.83,1.83,0,0,1,22.93,10.24Z"/></g></g></svg>