<svg xmlns="http://www.w3.org/2000/svg" viewBox="0 0 21.49 15.77"><defs><style>.cls-1{fill:#231f20;}</style></defs><title>kitchenette</title><g id="Layer_2" data-name="Layer 2"><g id="Layer_1-2" data-name="Layer 1"><path class="cls-1" d="M8.51,5.52A.43.43,0,0,0,8.08,6V7.84a.43.43,0,1,0,.86,0V6A.43.43,0,0,0,8.51,5.52Z"/><path class="cls-1" d="M13,8.28a.44.44,0,0,0,.44-.44V6a.44.44,0,0,0-.87,0V7.84A.44.44,0,0,0,13,8.28Z"/><path class="cls-1" d="M21.06,0H.43A.43.43,0,0,0,0,.43V3.19a.44.44,0,0,0,.43.44H.67v11.7a.44.44,0,0,0,.44.44H20.39a.44.44,0,0,0,.43-.44V3.63h.24a.44.44,0,0,0,.43-.44V.43A.43.43,0,0,0,21.06,0ZM.87.87H20.63V2.76H.87Zm.67,2.76h8.77V14.9H1.54ZM20,14.9H11.18V3.63H20Z"/></g></g></svg>