<svg xmlns="http://www.w3.org/2000/svg" viewBox="0 0 24.27 32"><defs><style>.cls-1{fill:#231f20;}</style></defs><title>laundry</title><g id="Layer_2" data-name="Layer 2"><g id="Layer_1-2" data-name="Layer 1"><path class="cls-1" d="M23.75,0H.52A.52.52,0,0,0,0,.52v31A.52.52,0,0,0,.52,32H23.75a.52.52,0,0,0,.52-.52V.52A.52.52,0,0,0,23.75,0Zm-.51,1V5.31H1V1ZM1,31V6.34H23.24V31Z"/><path class="cls-1" d="M12.12,9.44a7.71,7.71,0,1,0,7.7,7.71A7.72,7.72,0,0,0,12.12,9.44Zm0,14.38a6.68,6.68,0,1,1,6.67-6.67A6.68,6.68,0,0,1,12.12,23.82Z"/><path class="cls-1" d="M12.12,11.54a5.61,5.61,0,1,0,5.61,5.61A5.61,5.61,0,0,0,12.12,11.54Zm0,10.19a4.58,4.58,0,1,1,4.58-4.58A4.59,4.59,0,0,1,12.12,21.73Z"/></g></g></svg>