<svg xmlns="http://www.w3.org/2000/svg" viewBox="0 0 62.53 40.39"><defs><style>.cls-1,.cls-2{fill:none;stroke:#231f20;}.cls-1{stroke-miterlimit:3;}.cls-2{stroke-miterlimit:10;}</style></defs><title>linen</title><g id="Layer_2" data-name="Layer 2"><g id="Layer_1-2" data-name="Layer 1"><path class="cls-1" d="M5.38,11,37.5.52,59.75,7.15s5.13,3.75,0,6.87S29.5,27.4,29.5,27.4s6-2,.92-5.63S5.38,11,5.38,11Z"/><path class="cls-2" d="M3.88,16.15,29.5,27.4,58.61,14.67s4,2.73,1.14,6.35L33.38,32.9s-1.92,1.71-6,0L2.08,22S-.33,18.11,3.88,16.15Z"/><path class="cls-1" d="M59.75,21s3.63,2.17,0,4.88L33,39.13a4.62,4.62,0,0,1-4.67.23L1.06,26.82C-.69,23.94,2.2,21.94,2.2,21.94"/><path class="cls-2" d="M5.73,10.91c-2.83.53-1.85,5.24-1.85,5.24"/></g></g></svg>