<svg xmlns="http://www.w3.org/2000/svg" viewBox="0 0 32 22.67"><defs><style>.cls-1{fill:#231f20;}</style></defs><title>micro-wave</title><g id="Layer_2" data-name="Layer 2"><g id="Layer_1-2" data-name="Layer 1"><path class="cls-1" d="M31.66,21.65a.34.34,0,0,1-.34-.34V1.48a.34.34,0,0,1,.68,0V21.31A.34.34,0,0,1,31.66,21.65Z"/><path class="cls-1" d="M30.61.68H1.26A.34.34,0,0,1,.92.34.34.34,0,0,1,1.26,0H30.61A.34.34,0,0,1,31,.34.34.34,0,0,1,30.61.68Z"/><path class="cls-1" d="M.34,21.33A.34.34,0,0,1,0,21V1.36A.34.34,0,0,1,.34,1a.34.34,0,0,1,.34.34V21A.34.34,0,0,1,.34,21.33Z"/><path class="cls-1" d="M30.72,22.67H1.44a.34.34,0,0,1,0-.68H30.72a.34.34,0,0,1,0,.68Z"/><path class="cls-1" d="M24.54,19.91H3.36A.34.34,0,0,1,3,19.57V3.83a.34.34,0,0,1,.34-.34H24.54a.34.34,0,0,1,.34.34V19.57A.34.34,0,0,1,24.54,19.91ZM3.7,19.23H24.2V4.17H3.7Z"/><path class="cls-1" d="M28.85,5.84a1.14,1.14,0,0,1-1.16-1.19,1.21,1.21,0,0,1,.29-.8,1.16,1.16,0,0,1,2,.8,1.22,1.22,0,0,1-.29.81A1.12,1.12,0,0,1,28.85,5.84Zm0-1.69a.46.46,0,0,0-.36.14.56.56,0,0,0-.12.36.47.47,0,0,0,.48.51A.43.43,0,0,0,29.2,5a.55.55,0,0,0,.13-.36A.48.48,0,0,0,28.85,4.15Z"/><path class="cls-1" d="M28.85,8.86a1.14,1.14,0,0,1-1.16-1.18,1.17,1.17,0,0,1,.29-.8,1.11,1.11,0,0,1,.87-.39A1.13,1.13,0,0,1,30,7.68a1.21,1.21,0,0,1-.29.8A1.12,1.12,0,0,1,28.85,8.86Zm0-1.69a.43.43,0,0,0-.36.15.54.54,0,0,0-.12.36.47.47,0,0,0,.48.5A.45.45,0,0,0,29.2,8a.55.55,0,0,0,.13-.36A.48.48,0,0,0,28.85,7.17Z"/><path class="cls-1" d="M28.85,11.7a1.14,1.14,0,0,1-1.16-1.19,1.21,1.21,0,0,1,.29-.8,1.16,1.16,0,0,1,2,.8,1.22,1.22,0,0,1-.29.81A1.12,1.12,0,0,1,28.85,11.7Zm0-1.69a.46.46,0,0,0-.36.14.58.58,0,0,0-.12.36.47.47,0,0,0,.48.51.45.45,0,0,0,.35-.14.59.59,0,0,0,.13-.37A.48.48,0,0,0,28.85,10Z"/><path class="cls-1" d="M22.05,17.58a1.12,1.12,0,0,1-1.12-1.12V6.94a1.12,1.12,0,1,1,2.23,0v9.52A1.12,1.12,0,0,1,22.05,17.58Zm0-11.08a.44.44,0,0,0-.44.44v9.52a.44.44,0,0,0,.44.44.44.44,0,0,0,.44-.44V6.94A.44.44,0,0,0,22.05,6.5Z"/><path class="cls-1" d="M30.86,22.67a.34.34,0,0,1,0-.68c.25,0,.46-.31.46-.68v-.09a.34.34,0,0,1,.67-.07.86.86,0,0,1,0,.16A1.27,1.27,0,0,1,30.86,22.67Z"/><path class="cls-1" d="M1.14,22.67A1.27,1.27,0,0,1,0,21.31a.86.86,0,0,1,0-.16.33.33,0,0,1,.37-.3.34.34,0,0,1,.3.37v.09c0,.37.21.68.46.68a.34.34,0,0,1,0,.68Z"/><path class="cls-1" d="M.34,1.82A.33.33,0,0,1,0,1.52a.86.86,0,0,1,0-.16A1.27,1.27,0,0,1,1.14,0a.34.34,0,0,1,.34.34.34.34,0,0,1-.34.34C.89.68.68,1,.68,1.36v.09a.34.34,0,0,1-.3.37Z"/><path class="cls-1" d="M31.66,1.82h0a.34.34,0,0,1-.3-.37V1.36c0-.37-.21-.68-.46-.68a.34.34,0,0,1-.33-.34A.34.34,0,0,1,30.86,0,1.27,1.27,0,0,1,32,1.36a.92.92,0,0,1,0,.16A.33.33,0,0,1,31.66,1.82Z"/></g></g></svg>