<svg xmlns="http://www.w3.org/2000/svg" viewBox="0 0 19.39 20.5"><defs><style>.cls-1{fill:#231f20;}</style></defs><title>mini-fridge</title><g id="Layer_2" data-name="Layer 2"><g id="Layer_1-2" data-name="Layer 1"><path class="cls-1" d="M19,0H.44A.44.44,0,0,0,0,.43V20.07a.44.44,0,0,0,.44.43H19a.43.43,0,0,0,.44-.43V.43A.43.43,0,0,0,19,0Zm-.44.38V.15H.89V.38ZM.89,19.61V1H18.51V19.61Z"/><path class="cls-1" d="M3.67,2.42a.44.44,0,0,0-.44.45V16a.44.44,0,0,0,.44.44A.44.44,0,0,0,4.11,16V2.87A.45.45,0,0,0,3.67,2.42Z"/></g></g></svg>