<svg xmlns="http://www.w3.org/2000/svg" viewBox="0 0 32 39.63"><defs><style>.cls-1{fill:none;}.cls-2{fill:#231f20;}</style></defs><title>mosquito-net</title><g id="Layer_2" data-name="Layer 2"><g id="Layer_1-2" data-name="Layer 1"><polygon class="cls-1" points="5.23 21.37 5.42 19.72 2.37 19.72 2.1 21.37 5.23 21.37"/><polygon class="cls-1" points="26.65 21.37 29.75 21.37 29.47 19.72 26.46 19.72 26.65 21.37"/><path class="cls-1" d="M30.87,21.88a.5.5,0,0,1-.5.5H1.5a.52.52,0,0,1-.39-.17A.52.52,0,0,1,1,21.8l.35-2.08H.93v7.73a3.49,3.49,0,0,1,2.58-1.14H5.12a1.87,1.87,0,0,1-.24-.91,1.84,1.84,0,0,1,1.83-1.84h6.92a1.85,1.85,0,0,1,1.84,1.84,1.88,1.88,0,0,1-.25.91h2.07A1.88,1.88,0,0,1,17,25.4a1.85,1.85,0,0,1,1.84-1.84H25.8a1.85,1.85,0,0,1,1.84,1.84,1.88,1.88,0,0,1-.25.91h1.1a3.49,3.49,0,0,1,2.58,1.14V19.72H30.5l.32,1.94A.42.42,0,0,1,30.87,21.88Z"/><polygon class="cls-1" points="26.34 1.01 24.38 1.01 26.36 18.78 29.32 18.78 26.34 1.01"/><polygon class="cls-1" points="6.25 21.37 12.04 21.37 12.1 19.72 6.44 19.72 6.25 21.37"/><polygon class="cls-1" points="19.85 21.37 25.63 21.37 25.45 19.72 19.79 19.72 19.85 21.37"/><path class="cls-1" d="M18.88,26.31H25.8a.91.91,0,1,0,0-1.81H18.88a.91.91,0,0,0,0,1.81Z"/><polygon class="cls-1" points="23.36 1.01 19.09 1.01 19.75 18.78 25.34 18.78 23.36 1.01"/><polygon class="cls-1" points="7.51 1.01 5.5 1.01 2.53 18.78 5.52 18.78 7.51 1.01"/><path class="cls-1" d="M6.71,26.31h6.92a.91.91,0,1,0,0-1.81H6.71a.91.91,0,0,0,0,1.81Z"/><path class="cls-1" d="M28.49,27.24h-25A2.59,2.59,0,0,0,.93,29.82V35.6H31.07V29.82A2.59,2.59,0,0,0,28.49,27.24Z"/><polygon class="cls-1" points="18.08 1.01 13.8 1.01 13.14 18.78 18.74 18.78 18.08 1.01"/><polygon class="cls-1" points="12.79 1.01 8.53 1.01 6.54 18.78 12.13 18.78 12.79 1.01"/><polygon class="cls-1" points="13.05 21.37 18.84 21.37 18.77 19.72 13.11 19.72 13.05 21.37"/><path class="cls-2" d="M31.54,18.78h-1.2l.16.94h.57v7.73a3.49,3.49,0,0,0-2.58-1.14h-1.1a1.88,1.88,0,0,0,.25-.91,1.85,1.85,0,0,0-1.84-1.84H18.88A1.85,1.85,0,0,0,17,25.4a1.88,1.88,0,0,0,.25.91H15.22a1.88,1.88,0,0,0,.25-.91,1.85,1.85,0,0,0-1.84-1.84H6.71A1.84,1.84,0,0,0,4.88,25.4a1.87,1.87,0,0,0,.24.91H3.51A3.49,3.49,0,0,0,.93,27.45V19.72h.42l.15-.94h-1a.47.47,0,0,0-.46.47V29.82H0v6.24a.47.47,0,0,0,.46.47H3.65v2.63a.46.46,0,0,0,.46.47.47.47,0,0,0,.47-.47V36.53h23.3v2.63a.47.47,0,1,0,.93,0V36.53h2.73a.47.47,0,0,0,.46-.47V29.82h0V19.25A.47.47,0,0,0,31.54,18.78ZM18.88,24.5H25.8a.91.91,0,1,1,0,1.81H18.88a.91.91,0,0,1,0-1.81Zm-12.17,0h6.92a.91.91,0,1,1,0,1.81H6.71a.91.91,0,0,1,0-1.81ZM31.07,35.6H.93V29.82a2.59,2.59,0,0,1,2.58-2.58h25a2.59,2.59,0,0,1,2.58,2.58Z"/><path class="cls-2" d="M5.5,1h2l-2,17.77h1L8.53,1h4.26l-.66,17.77h1L13.81,1h4.27l.66,17.77h1L19.09,1h4.27l2,17.77h1L24.38,1h2l3,17.77h1L27.27.42a.51.51,0,0,0-.5-.42H5.07a.51.51,0,0,0-.5.42L1.5,18.78h1Z"/><path class="cls-2" d="M29.75,21.37h-3.1l-.19-1.65h-1l.19,1.65H19.85l-.06-1.65h-1l.07,1.65H13.05l.06-1.65h-1L12,21.37H6.25l.19-1.65h-1l-.19,1.65H2.1l.27-1.65h-1L1,21.8a.52.52,0,0,0,.11.41.52.52,0,0,0,.39.17H30.37a.5.5,0,0,0,.5-.5.42.42,0,0,0-.05-.22l-.32-1.94h-1Z"/><polygon class="cls-2" points="29.47 19.72 30.5 19.72 30.34 18.78 29.32 18.78 29.47 19.72"/><polygon class="cls-2" points="2.37 19.72 2.53 18.78 1.5 18.78 1.35 19.72 2.37 19.72"/><polygon class="cls-2" points="6.44 19.72 6.54 18.78 5.52 18.78 5.42 19.72 6.44 19.72"/><polygon class="cls-2" points="26.46 19.72 26.36 18.78 25.34 18.78 25.45 19.72 26.46 19.72"/><polygon class="cls-2" points="19.79 19.72 19.75 18.78 18.74 18.78 18.77 19.72 19.79 19.72"/><polygon class="cls-2" points="13.11 19.72 13.14 18.78 12.13 18.78 12.1 19.72 13.11 19.72"/></g></g></svg>