<svg xmlns="http://www.w3.org/2000/svg" viewBox="0 0 32 29.73"><defs><style>.cls-1{fill:#231f20;}</style></defs><title>nautic-base</title><g id="Layer_2" data-name="Layer 2"><g id="Layer_1-2" data-name="Layer 1"><path class="cls-1" d="M16,29.73C7,29.73,0,26.78,0,23a.44.44,0,0,1,.44-.44H31.56A.44.44,0,0,1,32,23C32,26.78,25,29.73,16,29.73ZM.93,23.46c.61,3,7.27,5.39,15.07,5.39s14.45-2.43,15.07-5.39Z"/><path class="cls-1" d="M16,23.46a.44.44,0,0,1-.44-.44V.44a.44.44,0,1,1,.88,0V23A.44.44,0,0,1,16,23.46Z"/><path class="cls-1" d="M25.17,20.78H16a.44.44,0,0,1-.34-.73c7.82-9.36.78-18.94.48-19.34a.44.44,0,0,1,0-.56.46.46,0,0,1,.56-.09c.4.24,9.79,6,11,13.14a8.88,8.88,0,0,1-2.2,7.42A.46.46,0,0,1,25.17,20.78Zm-8.25-.89h8a8,8,0,0,0,1.88-6.55C26,8.35,20.69,3.94,17.92,2,19.67,5.24,22.41,12.63,16.92,19.89Z"/></g></g></svg>