<svg xmlns="http://www.w3.org/2000/svg" viewBox="0 0 32 22.67"><defs><style>.cls-1{fill:#231f20;}</style></defs><title>oven</title><g id="Layer_2" data-name="Layer 2"><g id="Layer_1-2" data-name="Layer 1"><path class="cls-1" d="M31.66,21.65a.34.34,0,0,1-.34-.34V1.48a.34.34,0,0,1,.68,0V21.31A.34.34,0,0,1,31.66,21.65Z"/><path class="cls-1" d="M30.23.68H.87A.34.34,0,0,1,.53.34.34.34,0,0,1,.87,0H30.23a.34.34,0,0,1,.33.34A.34.34,0,0,1,30.23.68Z"/><path class="cls-1" d="M.34,21.33A.34.34,0,0,1,0,21V1.36A.34.34,0,0,1,.34,1a.34.34,0,0,1,.34.34V21A.34.34,0,0,1,.34,21.33Z"/><path class="cls-1" d="M30.72,22.67H1.44a.34.34,0,0,1,0-.68H30.72a.34.34,0,0,1,0,.68Z"/><path class="cls-1" d="M28.73,19.91H3.43A.38.38,0,0,1,3,19.57V3.83a.38.38,0,0,1,.41-.34h25.3a.37.37,0,0,1,.4.34V19.57A.37.37,0,0,1,28.73,19.91Zm-24.9-.68H28.32V4.17H3.83Z"/><path class="cls-1" d="M13.8,2.07a1.12,1.12,0,0,1-1.18,1.15,1.24,1.24,0,0,1-.8-.28,1.11,1.11,0,0,1-.38-.87A1.13,1.13,0,0,1,12.62.91a1.19,1.19,0,0,1,.8.29A1.11,1.11,0,0,1,13.8,2.07Zm-1.69,0a.46.46,0,0,0,.15.36.6.6,0,0,0,.36.12.48.48,0,0,0,.51-.48A.45.45,0,0,0,13,1.71a.54.54,0,0,0-.36-.12A.48.48,0,0,0,12.11,2.07Z"/><path class="cls-1" d="M16.83,2.07a1.13,1.13,0,0,1-1.19,1.15,1.24,1.24,0,0,1-.8-.28,1.11,1.11,0,0,1-.38-.87A1.13,1.13,0,0,1,15.64.91a1.19,1.19,0,0,1,.8.29A1.11,1.11,0,0,1,16.83,2.07Zm-1.7,0a.46.46,0,0,0,.15.36.6.6,0,0,0,.36.12.48.48,0,0,0,.51-.48A.45.45,0,0,0,16,1.71a.54.54,0,0,0-.36-.12A.48.48,0,0,0,15.13,2.07Z"/><path class="cls-1" d="M19.66,2.07a1.12,1.12,0,0,1-1.18,1.15,1.24,1.24,0,0,1-.8-.28,1.11,1.11,0,0,1-.38-.87A1.13,1.13,0,0,1,18.48.91a1.19,1.19,0,0,1,.8.29A1.11,1.11,0,0,1,19.66,2.07ZM18,2.07a.46.46,0,0,0,.15.36.6.6,0,0,0,.36.12A.48.48,0,0,0,19,2.07a.45.45,0,0,0-.15-.36.54.54,0,0,0-.36-.12A.48.48,0,0,0,18,2.07Z"/><path class="cls-1" d="M9.8,6.49a1.12,1.12,0,0,1,1.12-1.11h9.52a1.12,1.12,0,1,1,0,2.23H10.92A1.12,1.12,0,0,1,9.8,6.49Zm11.08,0a.44.44,0,0,0-.44-.44H10.92a.45.45,0,0,0-.45.44.44.44,0,0,0,.45.44h9.52A.44.44,0,0,0,20.88,6.49Z"/><path class="cls-1" d="M30.86,22.67a.34.34,0,0,1,0-.68c.25,0,.46-.31.46-.68v-.09a.34.34,0,0,1,.67-.07.86.86,0,0,1,0,.16A1.27,1.27,0,0,1,30.86,22.67Z"/><path class="cls-1" d="M1.14,22.67A1.27,1.27,0,0,1,0,21.31a.86.86,0,0,1,0-.16.33.33,0,0,1,.37-.3.34.34,0,0,1,.3.37v.09c0,.37.21.68.46.68a.34.34,0,0,1,0,.68Z"/><path class="cls-1" d="M.34,1.82A.33.33,0,0,1,0,1.52a.86.86,0,0,1,0-.16A1.27,1.27,0,0,1,1.14,0a.34.34,0,0,1,.34.34.34.34,0,0,1-.34.34C.89.68.68,1,.68,1.36v.09a.34.34,0,0,1-.3.37Z"/><path class="cls-1" d="M31.66,1.82h0a.34.34,0,0,1-.3-.37V1.36c0-.37-.21-.68-.46-.68a.34.34,0,0,1-.33-.34A.34.34,0,0,1,30.86,0,1.27,1.27,0,0,1,32,1.36a.92.92,0,0,1,0,.16A.33.33,0,0,1,31.66,1.82Z"/></g></g></svg>