<svg xmlns="http://www.w3.org/2000/svg" viewBox="0 0 39.75 36.66"><defs><style>.cls-1{fill:#231f20;}</style></defs><title>private-swimming-pool</title><g id="Layer_2" data-name="Layer 2"><g id="Layer_1-2" data-name="Layer 1"><path class="cls-1" d="M7.26,24.93a4.34,4.34,0,0,1-4.33-4.34.45.45,0,0,1,.9,0,3.44,3.44,0,1,0,6.87,0,.45.45,0,0,1,.9,0A4.35,4.35,0,0,1,7.26,24.93Z"/><path class="cls-1" d="M15,24.93a4.34,4.34,0,0,1-4.33-4.34.45.45,0,0,1,.45-.45.45.45,0,0,1,.45.45,3.44,3.44,0,1,0,6.87,0,.45.45,0,0,1,.9,0A4.35,4.35,0,0,1,15,24.93Z"/><path class="cls-1" d="M22.81,24.93a4.34,4.34,0,0,1-4.33-4.34.45.45,0,0,1,.9,0,3.44,3.44,0,1,0,6.87,0,.45.45,0,0,1,.9,0A4.34,4.34,0,0,1,22.81,24.93Z"/><path class="cls-1" d="M30.59,24.93a4.34,4.34,0,0,1-4.33-4.34.45.45,0,0,1,.9,0,3.44,3.44,0,1,0,6.87,0,.45.45,0,0,1,.9,0A4.35,4.35,0,0,1,30.59,24.93Z"/><path class="cls-1" d="M12.57,24a.45.45,0,0,1-.44-.45V3.29a2.39,2.39,0,0,0-4.78,0,.45.45,0,0,1-.9,0,3.29,3.29,0,1,1,6.57,0V23.58A.45.45,0,0,1,12.57,24Z"/><path class="cls-1" d="M25.28,24a.45.45,0,0,1-.45-.45V3.29a2.39,2.39,0,1,0-4.77,0,.45.45,0,0,1-.45.45.45.45,0,0,1-.45-.45,3.29,3.29,0,1,1,6.57,0V23.58A.45.45,0,0,1,25.28,24Z"/><path class="cls-1" d="M25.28,8.94H12.57a.45.45,0,0,1,0-.9H25.28a.45.45,0,1,1,0,.9Z"/><path class="cls-1" d="M25.28,16.38H12.57a.45.45,0,0,1,0-.9H25.28a.45.45,0,0,1,0,.9Z"/><path d="M0,28.79H2.25c1.76,0,3,.59,3,2.32S4,33.54,2.3,33.54H1v3.12H0Zm2.17,3.93c1.38,0,2-.49,2-1.61S3.5,29.6,2.12,29.6H1v3.12Z"/><path d="M6.8,28.79H9.26c1.6,0,2.76.57,2.76,2.21s-1.16,2.33-2.76,2.33H7.8v3.33h-1Zm2.32,3.73c1.22,0,1.9-.5,1.9-1.52s-.68-1.4-1.9-1.4H7.8v2.92Zm-.06.54.79-.52,2.4,4.12H11.11Z"/><path d="M13.63,28.79h1v7.87h-1Z"/><path d="M15.71,28.79h1.06L18,33c.28.93.47,1.68.76,2.6h0c.3-.92.49-1.67.76-2.6l1.26-4.25h1l-2.5,7.87H18.22Z"/><path d="M24.41,28.79h1.13l2.67,7.87H27.15l-1.38-4.4c-.28-.88-.53-1.74-.78-2.65h0c-.25.91-.5,1.77-.78,2.65l-1.39,4.4h-1Zm-1.26,4.67h3.63v.8H23.15Z"/><path d="M30.3,29.64H27.92v-.85h5.76v.85H31.3v7h-1Z"/><path d="M35.09,28.79h4.54v.85H36.09V32.1h3V33h-3v2.86h3.66v.85H35.09Z"/></g></g></svg>