<svg xmlns="http://www.w3.org/2000/svg" viewBox="0 0 36.18 36.8"><defs><style>.cls-1{fill:#231f20;}</style></defs><title>public-swimming-pool</title><g id="Layer_2" data-name="Layer 2"><g id="Layer_1-2" data-name="Layer 1"><path class="cls-1" d="M4.34,24.93A4.35,4.35,0,0,1,0,20.59a.45.45,0,0,1,.9,0,3.44,3.44,0,1,0,6.87,0,.45.45,0,0,1,.9,0A4.34,4.34,0,0,1,4.34,24.93Z"/><path class="cls-1" d="M12.12,24.93a4.34,4.34,0,0,1-4.34-4.34.45.45,0,0,1,.9,0,3.44,3.44,0,1,0,6.87,0,.45.45,0,0,1,.9,0A4.34,4.34,0,0,1,12.12,24.93Z"/><path class="cls-1" d="M19.89,24.93a4.35,4.35,0,0,1-4.34-4.34.45.45,0,0,1,.9,0,3.44,3.44,0,1,0,6.87,0,.45.45,0,0,1,.45-.45.45.45,0,0,1,.45.45A4.34,4.34,0,0,1,19.89,24.93Z"/><path class="cls-1" d="M27.67,24.93a4.35,4.35,0,0,1-4.34-4.34.45.45,0,0,1,.9,0,3.44,3.44,0,1,0,6.87,0,.45.45,0,0,1,.9,0A4.34,4.34,0,0,1,27.67,24.93Z"/><path class="cls-1" d="M9.65,24a.45.45,0,0,1-.45-.45V3.29a2.39,2.39,0,1,0-4.78,0,.45.45,0,0,1-.9,0,3.29,3.29,0,0,1,6.58,0V23.58A.45.45,0,0,1,9.65,24Z"/><path class="cls-1" d="M22.36,24a.46.46,0,0,1-.46-.45V3.29a2.39,2.39,0,1,0-4.77,0,.45.45,0,1,1-.9,0,3.29,3.29,0,1,1,6.57,0V23.58A.45.45,0,0,1,22.36,24Z"/><path class="cls-1" d="M22.36,8.94H9.65a.45.45,0,0,1,0-.9H22.36a.45.45,0,0,1,0,.9Z"/><path class="cls-1" d="M22.36,16.38H9.65a.45.45,0,0,1,0-.9H22.36a.45.45,0,0,1,0,.9Z"/><path d="M.21,28.79H2.46c1.77,0,3,.59,3,2.32s-1.19,2.43-2.91,2.43H1.22v3.12h-1Zm2.17,3.93c1.38,0,2-.49,2-1.61s-.7-1.51-2.08-1.51H1.22v3.12Z"/><path d="M7,33.41V28.79H8v4.65c0,1.89.8,2.48,1.83,2.48s1.86-.59,1.86-2.48V28.79h1v4.62c0,2.52-1.22,3.39-2.82,3.39S7,35.93,7,33.41Z"/><path d="M14.76,28.79h2.33c1.6,0,2.71.54,2.71,1.93a1.73,1.73,0,0,1-1.15,1.71v0a1.82,1.82,0,0,1,1.6,1.89c0,1.54-1.22,2.3-3,2.3H14.76Zm2.16,3.35c1.34,0,1.9-.5,1.9-1.29s-.63-1.27-1.85-1.27H15.76v2.56Zm.21,3.72c1.34,0,2.14-.48,2.14-1.54s-.77-1.41-2.14-1.41H15.76v3Z"/><path d="M21.81,28.79h1v7h3.44v.85H21.81Z"/><path d="M27.64,28.79h1v7.87h-1Z"/><path d="M30.34,32.73c0-2.54,1.49-4.09,3.49-4.09a2.93,2.93,0,0,1,2.17,1l-.55.65a2.17,2.17,0,0,0-1.6-.75c-1.49,0-2.48,1.22-2.48,3.18s.95,3.22,2.44,3.22A2.34,2.34,0,0,0,35.63,35l.55.63a3,3,0,0,1-2.41,1.13C31.81,36.8,30.34,35.29,30.34,32.73Z"/></g></g></svg>