<svg xmlns="http://www.w3.org/2000/svg" viewBox="0 0 32 20.2"><defs><style>.cls-1{fill:#231f20;}</style></defs><title>room_service</title><g id="Layer_2" data-name="Layer 2"><g id="Layer_1-2" data-name="Layer 1"><path class="cls-1" d="M29.26,17a.5.5,0,0,1-.5-.51,12.75,12.75,0,0,0-25.49,0,.51.51,0,0,1-1,0,13.76,13.76,0,0,1,27.52,0A.51.51,0,0,1,29.26,17Z"/><path class="cls-1" d="M31.49,17.08H.51a.51.51,0,1,1,0-1h31a.51.51,0,1,1,0,1Z"/><path class="cls-1" d="M25.53,20.2H6.47a.48.48,0,0,1-.36-.15L2.94,16.88a.5.5,0,0,1,0-.71.51.51,0,0,1,.72,0l3,3H25.32l3-3a.53.53,0,0,1,.72,0,.51.51,0,0,1,0,.72l-3.17,3.17A.48.48,0,0,1,25.53,20.2Z"/><path class="cls-1" d="M17.42,3.88a.5.5,0,0,1-.5-.51V1.93a.92.92,0,1,0-1.84,0V3.35a.5.5,0,0,1-.5.51.51.51,0,0,1-.51-.51V1.93a1.93,1.93,0,1,1,3.86,0V3.37A.51.51,0,0,1,17.42,3.88Z"/></g></g></svg>