<svg xmlns="http://www.w3.org/2000/svg" viewBox="0 0 27.33 32"><defs><style>.cls-1{fill:#231f20;}</style></defs><title>safe</title><g id="Layer_2" data-name="Layer 2"><g id="Layer_1-2" data-name="Layer 1"><path class="cls-1" d="M26.82,29H.51A.51.51,0,0,1,0,28.52V.51A.51.51,0,0,1,.51,0H26.82a.51.51,0,0,1,.51.51v28A.51.51,0,0,1,26.82,29ZM1,28H26.31V1H1Z"/><path class="cls-1" d="M3.34,32a.51.51,0,0,1-.51-.51v-3a.51.51,0,0,1,1,0v3A.51.51,0,0,1,3.34,32Z"/><path class="cls-1" d="M24,32a.51.51,0,0,1-.51-.51v-3A.51.51,0,0,1,24,28a.51.51,0,0,1,.51.51v3A.51.51,0,0,1,24,32Z"/><path class="cls-1" d="M8.67,19.47a5,5,0,1,1,5-5A5,5,0,0,1,8.67,19.47Zm0-9.06a4,4,0,1,0,4,4A4,4,0,0,0,8.67,10.41Z"/><path class="cls-1" d="M8.67,17.76A3.33,3.33,0,1,1,12,14.43,3.34,3.34,0,0,1,8.67,17.76Zm0-5.64A2.31,2.31,0,1,0,11,14.43,2.32,2.32,0,0,0,8.67,12.12Z"/><path class="cls-1" d="M21.31,21.74a.51.51,0,0,1-.51-.51V7.56a.51.51,0,1,1,1,0V21.23A.51.51,0,0,1,21.31,21.74Z"/><path class="cls-1" d="M21.31,10a2.4,2.4,0,1,1,2.39-2.4A2.41,2.41,0,0,1,21.31,10Zm0-3.78a1.38,1.38,0,1,0,1.37,1.38A1.38,1.38,0,0,0,21.31,6.18Z"/><path class="cls-1" d="M21.31,23.63a2.4,2.4,0,1,1,2.39-2.4A2.41,2.41,0,0,1,21.31,23.63Zm0-3.77a1.38,1.38,0,1,0,1.37,1.37A1.37,1.37,0,0,0,21.31,19.86Z"/></g></g></svg>