<svg xmlns="http://www.w3.org/2000/svg" viewBox="0 0 32 31.68"><defs><style>.cls-1{fill:#231f20;}</style></defs><title>seaside-view</title><g id="Layer_2" data-name="Layer 2"><g id="Layer_1-2" data-name="Layer 1"><path class="cls-1" d="M30.38,20.76a.5.5,0,0,1-.42-.23,6.41,6.41,0,0,0-3.72-2.75,6.53,6.53,0,0,0-5,.68.49.49,0,0,1-.67-.16,6.46,6.46,0,0,0-8-2.37.51.51,0,0,1-.64-.21,6.46,6.46,0,0,0-8.54-2.51.49.49,0,0,1-.52,0,.51.51,0,0,1-.21-.48A13.83,13.83,0,0,1,3,10.82,14.76,14.76,0,1,1,31.46,18.7a16.1,16.1,0,0,1-.61,1.75.54.54,0,0,1-.42.31Zm-5.86-4.22a7.46,7.46,0,0,1,5.73,2.68c.09-.27.18-.53.25-.79A13.77,13.77,0,0,0,20.91,1.51,13.51,13.51,0,0,0,17.23,1,13.78,13.78,0,0,0,4,11.09c-.08.27-.14.55-.2.85a7.5,7.5,0,0,1,4.52-.17,7.42,7.42,0,0,1,4.24,3.08,7.46,7.46,0,0,1,8.54,2.52A7.45,7.45,0,0,1,24.52,16.54Z"/><path class="cls-1" d="M12.54,31.68l-.13,0a.5.5,0,0,1-.35-.62L16.5,15a.5.5,0,1,1,1,.27L13,31.31A.5.5,0,0,1,12.54,31.68Z"/><path class="cls-1" d="M30.27,30.39a.57.57,0,0,1-.18,0c-4.85-1.88-11.68-2.95-18.76-2.95a65,65,0,0,0-10.75.85A.49.49,0,0,1,0,27.85a.49.49,0,0,1,.41-.58,66.8,66.8,0,0,1,10.91-.87c7.3,0,14.09,1.08,19.12,3a.5.5,0,0,1-.18,1Z"/></g></g></svg>