<svg xmlns="http://www.w3.org/2000/svg" viewBox="0 0 32 17.66"><defs><style>.cls-1{fill:#231f20;}</style></defs><title>seminar</title><g id="Layer_2" data-name="Layer 2"><g id="Layer_1-2" data-name="Layer 1"><path class="cls-1" d="M10.43,7.78H3.15V1.16A1.24,1.24,0,0,0,2.73.25,1.86,1.86,0,0,0,1.58,0,1.88,1.88,0,0,0,.42.25,1.24,1.24,0,0,0,0,1.16V9.21a2.29,2.29,0,0,0,.25,1.3,1.23,1.23,0,0,0,.91.41h.42v6.36a.38.38,0,0,0,.76,0V10.92H9.26v6.36a.37.37,0,0,0,.37.38.38.38,0,0,0,.38-.38V10.92h.42a1.23,1.23,0,0,0,.91-.41,2.77,2.77,0,0,0,0-2.32A1.26,1.26,0,0,0,10.43,7.78ZM10.78,10a.47.47,0,0,1-.35.17H1.16A.54.54,0,0,1,.83,10a2.87,2.87,0,0,1-.07-.85.21.21,0,0,0,0-.08V1.16A.48.48,0,0,1,.9.83,2.41,2.41,0,0,1,1.58.76a3.54,3.54,0,0,1,.63.05.48.48,0,0,1,.18.35v7a.38.38,0,0,0,.38.38h7.66a.54.54,0,0,1,.33.13A3.27,3.27,0,0,1,10.78,10Z"/><path class="cls-1" d="M23.58,3.24A.38.38,0,0,0,24,2.86V.38A.38.38,0,0,0,23.58,0H8.42A.38.38,0,0,0,8,.38V2.86a.38.38,0,0,0,.38.38h7.2v14a.38.38,0,0,0,.76,0v-14ZM8.8.76H23.2V2.48H8.8Z"/><path class="cls-1" d="M31.58.25A1.86,1.86,0,0,0,30.43,0a1.81,1.81,0,0,0-1.16.25,1.24,1.24,0,0,0-.42.91V7.78H21.57a1.24,1.24,0,0,0-.91.42,2.78,2.78,0,0,0,0,2.31,1.23,1.23,0,0,0,.91.41H22v6.36a.38.38,0,1,0,.76,0V10.92h6.91v6.36a.38.38,0,0,0,.76,0V10.92h.42a1.23,1.23,0,0,0,.91-.41A2.29,2.29,0,0,0,32,9.21v-8A1.24,1.24,0,0,0,31.58.25ZM31.24,9.1v.08a3.63,3.63,0,0,1,0,.81.47.47,0,0,1-.35.17H21.57a.54.54,0,0,1-.33-.13,3.27,3.27,0,0,1,0-1.32.49.49,0,0,1,.35-.17h7.66a.38.38,0,0,0,.38-.38v-7a.54.54,0,0,1,.14-.33,2.41,2.41,0,0,1,.68-.07,3.89,3.89,0,0,1,.64.05.47.47,0,0,1,.17.35Z"/></g></g></svg>