<svg xmlns="http://www.w3.org/2000/svg" viewBox="0 0 40.11 36.8"><defs><style>.cls-1{fill:#231f20;}</style></defs><title>shared-swimming-pool</title><g id="Layer_2" data-name="Layer 2"><g id="Layer_1-2" data-name="Layer 1"><path class="cls-1" d="M8.45,24.93a4.35,4.35,0,0,1-4.34-4.34.45.45,0,0,1,.45-.45.45.45,0,0,1,.45.45,3.44,3.44,0,0,0,6.88,0,.45.45,0,0,1,.9,0A4.35,4.35,0,0,1,8.45,24.93Z"/><path class="cls-1" d="M16.23,24.93a4.35,4.35,0,0,1-4.34-4.34.45.45,0,0,1,.9,0,3.44,3.44,0,0,0,6.88,0,.45.45,0,1,1,.89,0A4.34,4.34,0,0,1,16.23,24.93Z"/><path class="cls-1" d="M24,24.93a4.34,4.34,0,0,1-4.33-4.34.45.45,0,0,1,.45-.45.45.45,0,0,1,.45.45,3.44,3.44,0,1,0,6.87,0,.45.45,0,0,1,.9,0A4.35,4.35,0,0,1,24,24.93Z"/><path class="cls-1" d="M31.78,24.93a4.35,4.35,0,0,1-4.34-4.34.45.45,0,0,1,.45-.45.45.45,0,0,1,.45.45,3.44,3.44,0,0,0,6.88,0,.45.45,0,1,1,.89,0A4.34,4.34,0,0,1,31.78,24.93Z"/><path class="cls-1" d="M13.76,24a.45.45,0,0,1-.45-.45V3.29a2.39,2.39,0,0,0-4.78,0,.45.45,0,0,1-.45.45.45.45,0,0,1-.45-.45,3.29,3.29,0,0,1,6.58,0V23.58A.45.45,0,0,1,13.76,24Z"/><path class="cls-1" d="M26.47,24a.45.45,0,0,1-.45-.45V3.29a2.39,2.39,0,0,0-4.78,0,.45.45,0,0,1-.9,0,3.29,3.29,0,0,1,6.58,0V23.58A.45.45,0,0,1,26.47,24Z"/><path class="cls-1" d="M26.47,8.94H13.76a.45.45,0,1,1,0-.9H26.47a.45.45,0,0,1,0,.9Z"/><path class="cls-1" d="M26.47,16.38H13.76a.45.45,0,0,1,0-.9H26.47a.45.45,0,1,1,0,.9Z"/><path d="M0,35.64.6,35a3.1,3.1,0,0,0,2.17,1c1,0,1.65-.51,1.65-1.28s-.57-1.06-1.32-1.38L2,32.76a2.22,2.22,0,0,1-1.59-2,2.24,2.24,0,0,1,2.48-2.09,3.24,3.24,0,0,1,2.31,1l-.53.64a2.53,2.53,0,0,0-1.78-.74c-.89,0-1.47.45-1.47,1.15s.69,1,1.3,1.31l1.12.48a2.19,2.19,0,0,1,1.63,2.11c0,1.24-1,2.23-2.69,2.23A3.8,3.8,0,0,1,0,35.64Z"/><path d="M7,28.79H8v3.29h3.66V28.79h1v7.87h-1V33H8v3.7H7Z"/><path d="M16.41,28.79h1.13l2.67,7.87H19.15l-1.38-4.4c-.28-.88-.53-1.74-.79-2.65h0c-.25.91-.5,1.77-.78,2.65l-1.39,4.4h-1Zm-1.26,4.67h3.62v.8H15.15Z"/><path d="M21.27,28.79h2.46c1.61,0,2.76.57,2.76,2.21s-1.15,2.33-2.76,2.33H22.27v3.33h-1Zm2.32,3.73c1.23,0,1.9-.5,1.9-1.52s-.67-1.4-1.9-1.4H22.27v2.92Zm-.05.54.78-.52,2.4,4.12H25.59Z"/><path d="M28.1,28.79h4.54v.85H29.1V32.1h3V33h-3v2.86h3.66v.85H28.1Z"/><path d="M34.42,28.79h2c2.42,0,3.72,1.4,3.72,3.91s-1.3,4-3.67,4h-2Zm1.9,7.05c1.84,0,2.76-1.16,2.76-3.14s-.92-3.09-2.76-3.09h-.89v6.23Z"/></g></g></svg>