<?xml version="1.0" encoding="UTF-8"?>
<svg width="39px" height="49px" viewBox="0 0 39 49" version="1.1" xmlns="http://www.w3.org/2000/svg" xmlns:xlink="http://www.w3.org/1999/xlink">
    <!-- Generator: Sketch 51.3 (57544) - http://www.bohemiancoding.com/sketch -->
    <title>Shape</title>
    <desc>Created with Sketch.</desc>
    <defs></defs>
    <g id="Moodboard" stroke="none" stroke-width="1" fill="none" fill-rule="evenodd">
        <g id="Artboard" transform="translate(-520.000000, -199.000000)" fill="#1A171B" fill-rule="nonzero">
            <g id="1" transform="translate(13.000000, 95.000000)">
                <g id="Clipped" transform="translate(23.000000, 0.000000)">
                    <g id="Group">
                        <path d="M522.024,132.727 C521.622,132.727 521.296,133.052 521.296,133.454 L521.296,136.498 L519.644,136.498 L513.619,115.545 L513.619,107.555 L513.619,105.331 C513.619,104.929 513.294,104.602 512.891,104.602 C512.489,104.602 512.164,104.928 512.164,105.331 L512.164,106.826 L495.52,106.826 L495.52,105.331 C495.52,104.929 495.195,104.602 494.792,104.602 C494.391,104.602 494.065,104.928 494.065,105.331 L494.065,107.555 L494.065,115.545 L488.039,136.498 L486.387,136.498 L486.387,133.454 C486.387,133.053 486.062,132.727 485.66,132.727 C485.258,132.727 484.932,133.052 484.932,133.454 L484.932,137.226 L484.932,147.402 L484.932,151.876 C484.932,152.277 485.257,152.603 485.66,152.603 C486.062,152.603 486.387,152.278 486.387,151.876 L486.387,148.13 L521.296,148.13 L521.296,151.876 C521.296,152.277 521.621,152.603 522.024,152.603 C522.425,152.603 522.751,152.278 522.751,151.876 L522.751,147.402 L522.751,137.226 L522.751,133.454 C522.751,133.052 522.426,132.727 522.024,132.727 Z M497.734,116.375 C497.853,116.86 498.115,117.294 498.501,117.608 L499.745,118.621 C499.745,118.621 499.745,118.621 499.746,118.621 C500.952,119.603 502.397,120.095 503.843,120.095 C505.289,120.095 506.735,119.604 507.94,118.621 L509.184,117.608 C509.57,117.294 509.832,116.859 509.95,116.375 L512.345,116.375 L514.856,125.109 C506.601,122.898 501.085,122.898 492.829,125.109 L495.341,116.375 L497.734,116.375 Z M499.419,116.48 C499.226,116.323 499.115,116.075 499.115,115.801 C499.115,115.527 499.225,115.28 499.42,115.121 L503.443,111.846 C503.685,111.649 503.999,111.649 504.241,111.846 L508.265,115.121 C508.458,115.279 508.569,115.526 508.569,115.801 C508.569,116.074 508.458,116.322 508.266,116.48 L507.021,117.493 C505.12,119.042 502.565,119.042 500.663,117.493 L500.664,117.493 L499.419,116.48 Z M512.165,108.281 L512.165,114.92 L509.848,114.92 C509.706,114.563 509.487,114.24 509.185,113.994 L505.161,110.719 C504.386,110.087 503.301,110.087 502.527,110.719 L498.503,113.994 C498.2,114.24 497.982,114.562 497.839,114.92 L495.522,114.92 L495.522,108.281 L512.165,108.281 Z M492.359,126.745 C501.094,124.304 506.591,124.304 515.326,126.745 L518.131,136.498 L489.553,136.498 L492.359,126.745 Z M486.388,146.674 L486.388,137.952 L521.297,137.952 L521.297,146.674 L486.388,146.674 Z" id="Shape"></path>
                    </g>
                </g>
            </g>
        </g>
    </g>
</svg>