<svg xmlns="http://www.w3.org/2000/svg" viewBox="0 0 26.91 32"><defs><style>.cls-1{fill:#231f20;}</style></defs><title>spa</title><g id="Layer_2" data-name="Layer 2"><g id="Layer_1-2" data-name="Layer 1"><path class="cls-1" d="M13.45,10.51a5.26,5.26,0,1,1,5.26-5.25A5.26,5.26,0,0,1,13.45,10.51Zm0-9.63a4.38,4.38,0,1,0,4.37,4.38A4.38,4.38,0,0,0,13.45.88Z"/><path class="cls-1" d="M22.77,32H4.14a4.15,4.15,0,0,1,0-8.29H6a.45.45,0,1,1,0,.89H4.14a3.26,3.26,0,0,0,0,6.51H22.77a3.26,3.26,0,0,0,0-6.51H20.88a.45.45,0,0,1,0-.89h1.89a4.15,4.15,0,0,1,0,8.29Z"/><path class="cls-1" d="M18.78,26.51H8.12A2.56,2.56,0,0,1,5.56,24c0-1.18,1.79-6.7,2.08-7.6.08-2.3,3.52-3.82,5.81-3.82s5.74,1.52,5.81,3.82c.3.9,2.08,6.42,2.08,7.6A2.56,2.56,0,0,1,18.78,26.51ZM13.45,13.42c-2.15,0-4.92,1.46-4.92,3a.59.59,0,0,1,0,.13A56.21,56.21,0,0,0,6.45,24a1.67,1.67,0,0,0,1.67,1.67H18.78A1.68,1.68,0,0,0,20.46,24a56.21,56.21,0,0,0-2.06-7.39.59.59,0,0,1,0-.13C18.38,14.88,15.6,13.42,13.45,13.42Z"/><path class="cls-1" d="M16.46,26.51a.42.42,0,0,1-.21-.06l-6.09-3.38a.45.45,0,0,1-.17-.61.44.44,0,0,1,.6-.17l6.09,3.39a.44.44,0,0,1,.17.6A.43.43,0,0,1,16.46,26.51Z"/><path class="cls-1" d="M13.41,24.82a.43.43,0,0,1-.38-.23.43.43,0,0,1,.17-.6l3.05-1.7a.44.44,0,0,1,.6.17.45.45,0,0,1-.17.61l-3,1.69A.43.43,0,0,1,13.41,24.82Z"/><path class="cls-1" d="M20,32a.54.54,0,0,1-.21-.05L9.55,26.46a.45.45,0,0,1,.43-.79l10.18,5.5A.44.44,0,0,1,20,32Z"/></g></g></svg>