<svg xmlns="http://www.w3.org/2000/svg" viewBox="0 0 32 24.93"><defs><style>.cls-1{fill:#231f20;}</style></defs><title>pool</title><g id="Layer_2" data-name="Layer 2"><g id="Layer_1-2" data-name="Layer 1"><path class="cls-1" d="M4.34,24.93A4.35,4.35,0,0,1,0,20.59a.45.45,0,0,1,.9,0,3.44,3.44,0,1,0,6.87,0,.45.45,0,0,1,.9,0A4.34,4.34,0,0,1,4.34,24.93Z"/><path class="cls-1" d="M12.12,24.93a4.34,4.34,0,0,1-4.34-4.34.45.45,0,0,1,.9,0,3.44,3.44,0,1,0,6.87,0,.45.45,0,0,1,.9,0A4.34,4.34,0,0,1,12.12,24.93Z"/><path class="cls-1" d="M19.89,24.93a4.35,4.35,0,0,1-4.34-4.34.45.45,0,0,1,.9,0,3.44,3.44,0,1,0,6.87,0,.45.45,0,0,1,.45-.45.45.45,0,0,1,.45.45A4.34,4.34,0,0,1,19.89,24.93Z"/><path class="cls-1" d="M27.67,24.93a4.35,4.35,0,0,1-4.34-4.34.45.45,0,0,1,.9,0,3.44,3.44,0,1,0,6.87,0,.45.45,0,0,1,.9,0A4.34,4.34,0,0,1,27.67,24.93Z"/><path class="cls-1" d="M9.65,24a.45.45,0,0,1-.45-.45V3.29a2.39,2.39,0,1,0-4.78,0,.45.45,0,0,1-.9,0,3.29,3.29,0,0,1,6.58,0V23.58A.45.45,0,0,1,9.65,24Z"/><path class="cls-1" d="M22.36,24a.46.46,0,0,1-.46-.45V3.29a2.39,2.39,0,1,0-4.77,0,.45.45,0,1,1-.9,0,3.29,3.29,0,1,1,6.57,0V23.58A.45.45,0,0,1,22.36,24Z"/><path class="cls-1" d="M22.36,8.94H9.65a.45.45,0,0,1,0-.9H22.36a.45.45,0,0,1,0,.9Z"/><path class="cls-1" d="M22.36,16.38H9.65a.45.45,0,0,1,0-.9H22.36a.45.45,0,0,1,0,.9Z"/></g></g></svg>