<svg xmlns="http://www.w3.org/2000/svg" viewBox="0 0 32 23.53"><defs><style>.cls-1{fill:#231f20;}</style></defs><title>wifi</title><g id="Layer_2" data-name="Layer 2"><g id="Layer_1-2" data-name="Layer 1"><path class="cls-1" d="M16,23.53a4.31,4.31,0,1,1,4.31-4.31A4.32,4.32,0,0,1,16,23.53Zm0-7.64a3.33,3.33,0,1,0,3.33,3.33A3.33,3.33,0,0,0,16,15.89Z"/><path class="cls-1" d="M5.39,16l-.17,0a.5.5,0,0,1-.3-.64,11.79,11.79,0,0,1,22.16,0,.5.5,0,1,1-.93.34,10.79,10.79,0,0,0-20.3,0A.48.48,0,0,1,5.39,16Z"/><path class="cls-1" d="M31.51,10.46a.49.49,0,0,1-.44-.26,16.93,16.93,0,0,0-30.14,0,.49.49,0,0,1-.66.21.48.48,0,0,1-.21-.66A17.91,17.91,0,0,1,32,9.75a.5.5,0,0,1-.22.66A.44.44,0,0,1,31.51,10.46Z"/></g></g></svg>