<svg xmlns="http://www.w3.org/2000/svg" viewBox="0 0 455.14 180.47"><defs><style>.cls-1{fill:none;stroke:#ad8ae5;stroke-miterlimit:10;stroke-width:5px;}</style></defs><title>Asset 1</title><g id="Layer_2" data-name="Layer 2"><g id="Layer_1-2" data-name="Layer 1"><path class="cls-1" d="M108.86,177.14c-1.93.55-7.71.83-11.83.83s-9.9-.28-11.83-.83V129.29H6.55L2.7,115C25.8,77.86,52.2,39.08,81.08,3.33l27.78,4.4V110.86h24.47a53.36,53.36,0,0,1,1.38,11.83,46.35,46.35,0,0,1-.55,6.6h-25.3ZM85.2,48.43A194.94,194.94,0,0,1,86.58,26.7H84.65C64,51.45,42.57,83.63,26.9,109.48v1.93c4.12-.28,11.82-.55,17.33-.55h41Z"/><path class="cls-1" d="M299.72,77.58c0,52-27.22,79.76-71.23,79.76-45.93,0-71.5-26.4-71.5-79.76C157,31.1,186.41,2.5,228.49,2.5,272,2.5,299.72,28.63,299.72,77.58ZM228.49,140c30,0,45.11-23.1,45.11-62.43,0-33.83-17.06-58-45.11-58-29.43,0-45.38,22.28-45.38,58C183.11,116.09,200.16,140,228.49,140Z"/><path class="cls-1" d="M426.79,177.14c-1.93.55-7.7.83-11.83.83s-9.9-.28-11.82-.83V129.29H324.48L320.63,115c23.1-37.12,49.5-75.9,78.38-111.65l27.78,4.4V110.86h24.47a53.36,53.36,0,0,1,1.38,11.83,46.35,46.35,0,0,1-.55,6.6h-25.3ZM403.14,48.43a197.31,197.31,0,0,1,1.37-21.73h-1.92C382,51.45,360.51,83.63,344.83,109.48v1.93c4.13-.28,11.83-.55,17.33-.55h41Z"/></g></g></svg>