<svg xmlns="http://www.w3.org/2000/svg" viewBox="0 0 459.62 185.69"><defs><style>.cls-1{fill:none;stroke:#ad8ae5;stroke-miterlimit:10;stroke-width:5px;}</style></defs><title>Asset 2</title><g id="Layer_2" data-name="Layer 2"><g id="Layer_1-2" data-name="Layer 1"><path class="cls-1" d="M33.3,78.68a156.19,156.19,0,0,1,26.41-2.75c30.8,0,54.18,15.13,54.18,44.83,0,43.18-35.76,62.43-71,62.43a146.41,146.41,0,0,1-36.58-4.67c-2.2-3.3-3.85-10.18-3.85-14.85a13.26,13.26,0,0,1,.28-3,207.71,207.71,0,0,0,39.6,3.85c23.65,0,45.38-14.58,45.38-41.53,0-20.9-15.13-30-41-30a187.59,187.59,0,0,0-34.65,3.58L18.73,8h95.71a132.14,132.14,0,0,1-3,24.48C86.93,31.1,61.91,30.55,37.15,30Z"/><path class="cls-1" d="M283.58,77.58c0,52-27.23,79.76-71.23,79.76-45.93,0-71.51-26.4-71.51-79.76,0-46.48,29.43-75.08,71.51-75.08C255.8,2.5,283.58,28.63,283.58,77.58ZM212.35,140c30,0,45.1-23.1,45.1-62.43,0-33.83-17-58-45.1-58-29.43,0-45.38,22.28-45.38,58C167,116.09,184,140,212.35,140Z"/><path class="cls-1" d="M457.12,77.58c0,52-27.23,79.76-71.23,79.76-45.93,0-71.51-26.4-71.51-79.76,0-46.48,29.43-75.08,71.51-75.08C429.34,2.5,457.12,28.63,457.12,77.58ZM385.89,140c30,0,45.1-23.1,45.1-62.43,0-33.83-17.05-58-45.1-58-29.43,0-45.38,22.28-45.38,58C340.51,116.09,357.56,140,385.89,140Z"/></g></g></svg>