<?xml version="1.0" encoding="iso-8859-1"?>
<!-- Generator: Adobe Illustrator 16.0.0, SVG Export Plug-In . SVG Version: 6.00 Build 0)  -->
<!DOCTYPE svg PUBLIC "-//W3C//DTD SVG 1.1//EN" "http://www.w3.org/Graphics/SVG/1.1/DTD/svg11.dtd">
<svg version="1.1" xmlns="http://www.w3.org/2000/svg" xmlns:xlink="http://www.w3.org/1999/xlink" x="0px" y="0px" width="32px"
	 height="32px" viewBox="0 0 32 32" style="enable-background:new 0 0 32 32;" xml:space="preserve">
<g id="railway-station">
	<g>
		<rect x="15" y="17" style="fill:#AE8BE6;" width="2" height="2"/>
		<rect x="11" y="17" style="fill:#AE8BE6;" width="2" height="2"/>
		<circle style="fill:#AE8BE6;" cx="16" cy="12" r="1"/>
		<rect x="19" y="17" style="fill:#AE8BE6;" width="2" height="2"/>
		<rect x="19" y="21" style="fill:#AE8BE6;" width="2" height="2"/>
		<path style="fill:#AE8BE6;" d="M16,0C7.164,0,0,7.164,0,16s7.164,16,16,16s16-7.164,16-16S24.836,0,16,0z M23,17v7h-6v-3h-2v3H9
			v-7H8l2-3h3v-3h-1l2-3h4l2,3h-1v3h3l2,3H23z"/>
		<rect x="11" y="21" style="fill:#AE8BE6;" width="2" height="2"/>
	</g>
</g>
<g id="Layer_1">
</g>
</svg>
