<?xml version="1.0" encoding="iso-8859-1"?>
<!-- Generator: Adobe Illustrator 16.0.0, SVG Export Plug-In . SVG Version: 6.00 Build 0)  -->
<!DOCTYPE svg PUBLIC "-//W3C//DTD SVG 1.1//EN" "http://www.w3.org/Graphics/SVG/1.1/DTD/svg11.dtd">
<svg version="1.1" xmlns="http://www.w3.org/2000/svg" xmlns:xlink="http://www.w3.org/1999/xlink" x="0px" y="0px" width="32px"
	 height="32px" viewBox="0 0 32 32" style="enable-background:new 0 0 32 32;" xml:space="preserve">
<g id="map">
	<path style="fill:#F7BD5A;" d="M16,0C7.164,0,0,7.164,0,16s7.164,16,16,16s16-7.164,16-16S24.836,0,16,0z M13,21.334L8,23v-3
		l5-1.666V21.334z M13,17.334L8,19v-4l5-1.666V17.334z M13,12.334L8,14v-3l5-1.666V12.334z M18,23l-4-2v-3l4,2V23z M18,19l-4-2v-4
		l4,2V19z M18,14l-4-2V9l4,2V14z M24,21l-5,1.666v-3L24,18V21z M24,17l-5,1.666v-4L24,13V17z M24,12l-5,1.666v-3L24,9V12z"/>
</g>
<g id="Layer_1">
</g>
</svg>
