<?xml version="1.0" encoding="iso-8859-1"?>
<!-- Generator: Adobe Illustrator 16.0.0, SVG Export Plug-In . SVG Version: 6.00 Build 0)  -->
<!DOCTYPE svg PUBLIC "-//W3C//DTD SVG 1.1//EN" "http://www.w3.org/Graphics/SVG/1.1/DTD/svg11.dtd">
<svg version="1.1" xmlns="http://www.w3.org/2000/svg" xmlns:xlink="http://www.w3.org/1999/xlink" x="0px" y="0px" width="32px"
	 height="32px" viewBox="0 0 32 32" style="enable-background:new 0 0 32 32;" xml:space="preserve">
<g id="compass">
	<g>
		<circle style="fill:#FE878D;" cx="16.008" cy="10" r="1.008"/>
		<path style="fill:#FE878D;" d="M13,18.992l4-2l2-4l-4,2L13,18.992z M16.008,14.992c0.557,0,1.008,0.451,1.008,1.008
			s-0.451,1.008-1.008,1.008S15,16.557,15,16S15.451,14.992,16.008,14.992z"/>
		<circle style="fill:#FE878D;" cx="15.992" cy="21.984" r="1.008"/>
		<path style="fill:#FE878D;" d="M16,0C7.164,0,0,7.164,0,16c0,8.836,7.164,16,16,16s16-7.164,16-16C32,7.164,24.836,0,16,0z
			 M16,23.992c-4.418,0-8-3.582-8-8c0-4.418,3.582-8,8-8s8,3.582,8,8C24,20.41,20.418,23.992,16,23.992z"/>
	</g>
</g>
<g id="Layer_1">
</g>
</svg>
