
<svg width="82px" height="82px" viewBox="0 0 82 82" version="1.1" xmlns="http://www.w3.org/2000/svg" xmlns:xlink="http://www.w3.org/1999/xlink">
  <!-- Generator: Sketch 51.2 (57519) - http://www.bohemiancoding.com/sketch -->
  <desc>Created with Sketch.</desc>
  <defs></defs>
  <g id="Hifi-Mockups" stroke="none" stroke-width="1" fill="none" fill-rule="evenodd">
    <g id="Landing-0.4" transform="translate(-290.000000, -828.000000)">
      <g id="Differences" transform="translate(0.000000, 768.000000)">
        <g id="differences-content" transform="translate(150.000000, 61.000000)">
          <g id="unique-stay">
            <g id="Beach,-palm.-sun,-hammock" transform="translate(140.000000, 0.000000)">
              <path d="M58.775,13.333 C51.413,13.333 45.443,19.303 45.443,26.666 C45.443,27.827 45.606,28.945 45.884,30.019 C48.785,30.536 51.62,31.358 54.331,32.479 C52.246,33.343 50.129,34 48,34.496 C50.426,37.826 54.343,39.998 58.774,39.998 C66.139,39.998 72.109,34.029 72.109,26.665 C72.11,19.302 66.141,13.333 58.775,13.333 Z" id="Shape" stroke="#565126" stroke-width="1.5" fill="#D95C54" fill-rule="nonzero" stroke-linecap="round" stroke-linejoin="round"></path>
              <path d="M58.775,13.333 C57.763,13.333 56.782,13.456 55.835,13.669 C61.782,15.009 66.228,20.314 66.228,26.666 C66.228,33.02 61.78,38.327 55.828,39.665 C56.776,39.88 57.763,39.998 58.776,39.998 C66.141,39.998 72.111,34.029 72.111,26.665 C72.11,19.302 66.141,13.333 58.775,13.333 Z" id="Shape" fill="#BE5049" fill-rule="nonzero"></path>
              <path d="M25.917,41.28 C24.214,38.769 23.221,35.74 23.221,32.479 C22.24,34.847 21.041,37.05 19.691,39.121 L19.69,39.123 C20.107,52.795 22.897,66.611 28.44,80 L44.048,79.996 C33.944,69.886 27.279,56.346 25.917,41.28 Z" id="Shape" stroke="#565126" stroke-width="1.5" fill="#E0C794" fill-rule="nonzero" stroke-linecap="round" stroke-linejoin="round"></path>
              <path d="M25.917,41.28 C24.214,38.769 23.221,35.74 23.221,32.479 C22.463,34.308 21.572,36.036 20.585,37.684 C21.035,38.966 21.638,40.175 22.386,41.28 L22.387,41.281 C23.748,56.346 30.414,69.886 40.518,79.997 L28.439,80 L28.44,80 L44.048,79.996 C33.944,69.886 27.279,56.346 25.917,41.28 Z" id="Shape" fill="#C2AE82" fill-rule="nonzero"></path>
              <path d="M23.222,32.479 C22.241,34.847 21.042,37.05 19.692,39.121 L19.691,39.123 C19.731,40.409 19.798,41.697 19.879,42.985 C21.358,41.036 22.676,38.951 23.818,36.746 C23.436,35.389 23.222,33.96 23.222,32.479 Z" id="Shape" fill="#C2AE82" fill-rule="nonzero"></path>
              <path d="M1.223,54.478 C10.832,50.491 18.925,42.847 23.222,32.479 C13.608,36.464 5.519,44.109 1.223,54.478 Z" id="Shape" stroke="#565126" stroke-width="1.5" fill="#EBE4D2" fill-rule="nonzero" stroke-linecap="round" stroke-linejoin="round"></path>
              <path d="M20.254,33.861 C16.315,42.462 9.713,49.061 1.837,53.094 C1.628,53.552 1.417,54.008 1.223,54.477 C10.832,50.49 18.925,42.846 23.222,32.478 C22.213,32.896 21.227,33.364 20.254,33.861 Z" id="Shape" fill="#CCC7B8" fill-rule="nonzero"></path>
              <path d="M15.604,36.673 C17.998,35.015 20.542,33.59 23.222,32.479 C17.086,26.341 7.137,26.343 1,32.479 C4.962,36.441 10.514,37.829 15.604,36.673 Z" id="Shape" stroke="#565126" stroke-width="1.5" fill="#EBE4D2" fill-rule="nonzero" stroke-linecap="round" stroke-linejoin="round"></path>
              <path d="M21.405,33.294 C22.004,33.008 22.607,32.733 23.221,32.479 C17.085,26.341 7.136,26.343 0.999,32.479 C1.422,32.902 1.867,33.291 2.324,33.655 C7.879,29.224 15.724,29.109 21.405,33.294 Z" id="Shape" fill="#CCC7B8" fill-rule="nonzero"></path>
              <path d="M21.209,30.798 C17.554,32.434 14.189,34.53 11.187,37.034 C12.665,37.118 14.154,37.003 15.604,36.673 C17.998,35.015 20.542,33.59 23.222,32.479 C22.591,31.848 21.912,31.299 21.209,30.798 Z" id="Shape" fill="#CCC7B8" fill-rule="nonzero"></path>
              <path d="M31.636,30.02 C29.202,31.568 26.322,32.479 23.225,32.479 L23.223,32.479 C26.318,32.479 29.193,33.387 31.624,34.93 C39.022,36.26 46.873,35.569 54.332,32.479 C47.279,29.562 39.417,28.624 31.636,30.02 Z" id="Shape" stroke="#565126" stroke-width="1.5" fill="#EBE4D2" fill-rule="nonzero" stroke-linecap="round" stroke-linejoin="round"></path>
              <path d="M36.42,29.458 C40.983,29.723 45.447,30.75 49.627,32.479 C45.322,34.263 40.889,35.242 36.486,35.499 C42.404,35.842 48.488,34.901 54.332,32.479 C48.725,30.158 42.604,29.097 36.42,29.458 Z" id="Shape" fill="#CCC7B8" fill-rule="nonzero"></path>
              <path d="M16.833,28.611 C19.168,29.345 21.371,30.628 23.221,32.479 C20.806,26.652 16.173,21.75 9.888,19.145 C11.391,22.769 13.752,26.033 16.833,28.611 Z" id="Shape" stroke="#565126" stroke-width="1.5" fill="#EBE4D2" fill-rule="nonzero" stroke-linecap="round" stroke-linejoin="round"></path>
              <path d="M19.522,29.742 C20.851,30.45 22.101,31.36 23.222,32.479 C20.807,26.652 16.174,21.75 9.889,19.145 C10.103,19.661 10.34,20.168 10.588,20.669 C14.405,22.907 17.438,26.067 19.522,29.742 Z" id="Shape" fill="#CCC7B8" fill-rule="nonzero"></path>
              <path d="M16.833,28.611 C19.168,29.345 21.371,30.628 23.221,32.479 C22.506,30.755 21.593,29.115 20.506,27.589 C18.443,26.504 16.183,25.827 13.826,25.606 C14.734,26.684 15.736,27.694 16.833,28.611 Z" id="Shape" fill="#CCC7B8" fill-rule="nonzero"></path>
              <path d="M24.898,25.441 C25.187,21.889 24.679,18.22 23.222,14.701 C20.949,20.194 20.769,26.552 23.22,32.476 C23.222,29.946 23.834,27.561 24.898,25.441 Z" id="Shape" stroke="#565126" stroke-width="1.5" fill="#EBE4D2" fill-rule="nonzero" stroke-linecap="round" stroke-linejoin="round"></path>
              <path d="M23.222,14.701 C22.876,15.534 22.587,16.389 22.34,17.256 C23.109,19.975 23.352,22.741 23.132,25.441 C22.649,26.406 22.263,27.429 21.98,28.492 C22.271,29.832 22.677,31.165 23.219,32.475 C23.221,29.945 23.834,27.559 24.897,25.44 C25.187,21.89 24.679,18.221 23.222,14.701 Z" id="Shape" fill="#CCC7B8" fill-rule="nonzero"></path>
              <path d="M23.22,32.476 C23.222,29.946 23.835,27.56 24.898,25.441 C25.013,24.034 24.996,22.608 24.851,21.181 C23.468,22.902 22.392,24.879 21.708,27.033 C21.984,28.863 22.48,30.689 23.22,32.476 Z" id="Shape" fill="#CCC7B8" fill-rule="nonzero"></path>
              <path d="M36.053,29.477 C34.582,29.575 33.107,29.755 31.636,30.02 C29.202,31.568 26.322,32.479 23.225,32.479 L23.223,32.479 C25.405,32.479 27.473,32.937 29.357,33.746 C31.822,32.856 34.088,31.448 35.996,29.541 C36.017,29.52 36.033,29.497 36.053,29.477 Z" id="Shape" fill="#CCC7B8" fill-rule="nonzero"></path>
              <path d="M38.9330017,16.763 C30.256,16.763 23.222,23.8 23.222,32.479 C31.898,32.479 38.937,25.443 38.9330017,16.763 Z" id="Shape" stroke="#565126" stroke-width="1.5" fill="#EBE4D2" fill-rule="nonzero" stroke-linecap="round" stroke-linejoin="round"></path>
              <path d="M35.382,17.181 C35.193,24.45 30.075,30.48 23.242,32.06 C23.239,32.201 23.221,32.338 23.221,32.478 C31.897,32.478 38.936,25.442 38.9320017,16.762 C37.709,16.763 36.525,16.917 35.382,17.181 Z" id="Shape" fill="#CCC7B8" fill-rule="nonzero"></path>
              <path d="M36.04,35.474 C34.177,33.598 31.907,32.127 29.373,31.207 C27.484,32.018 25.411,32.479 23.226,32.479 L23.224,32.479 C26.319,32.479 29.194,33.387 31.625,34.93 C33.08,35.192 34.555,35.372 36.04,35.474 Z" id="Shape" fill="#CCC7B8" fill-rule="nonzero"></path>
              <path d="M38.938,48.1910017 C38.938,39.515 31.9,32.48 23.222,32.48 C23.222,41.157 30.256,48.195 38.938,48.1910017 Z" id="Shape" stroke="#565126" stroke-width="1.5" fill="#EBE4D2" fill-rule="nonzero" stroke-linecap="round" stroke-linejoin="round"></path>
              <path d="M35.387,47.774 C36.531,48.039 37.715,48.192 38.938,48.1910049 C38.938,39.515 31.9,32.48 23.222,32.48 C23.222,32.621 23.239,32.758 23.243,32.897 C30.078,34.479 35.197,40.508 35.387,47.774 Z" id="Shape" fill="#CCC7B8" fill-rule="nonzero"></path>
              <path d="M38.933,16.763 L23.22,32.477 L38.933,16.763 Z" id="Shape" stroke="#565126" stroke-width="1.5" stroke-linecap="round" stroke-linejoin="round"></path>
              <path d="M27.935,21.264 L27.935,27.765 L27.935,21.264 Z" id="Shape" stroke="#565126" stroke-width="1.5" stroke-linecap="round" stroke-linejoin="round"></path>
              <path d="M31.076,24.621 L36.814,24.623 L31.076,24.621 Z" id="Shape" stroke="#565126" stroke-width="1.5" stroke-linecap="round" stroke-linejoin="round"></path>
              <path d="M38.938,48.191 L23.223,32.479 L38.938,48.191 Z" id="Shape" stroke="#565126" stroke-width="1.5" stroke-linecap="round" stroke-linejoin="round"></path>
              <path d="M34.436,37.194 L27.938,37.194 L34.436,37.194 Z" id="Shape" stroke="#565126" stroke-width="1.5" stroke-linecap="round" stroke-linejoin="round"></path>
              <path d="M31.08,40.335 L31.08,46.07 L31.08,40.335 Z" id="Shape" stroke="#565126" stroke-width="1.5" stroke-linecap="round" stroke-linejoin="round"></path>
              <path d="M1,32.479 L23.222,32.479 L1,32.479 Z" id="Shape" stroke="#565126" stroke-width="1.5" stroke-linecap="round" stroke-linejoin="round"></path>
              <path d="M11.959,27.883 L16.554,32.479 L11.959,27.883 Z" id="Shape" stroke="#565126" stroke-width="1.5" stroke-linecap="round" stroke-linejoin="round"></path>
              <path d="M12.112,32.479 L8.054,36.536 L12.112,32.479 Z" id="Shape" stroke="#565126" stroke-width="1.5" stroke-linecap="round" stroke-linejoin="round"></path>
              <path d="M36.94,71.498 L28.44,79.996 L36.94,71.498 Z" id="Shape" stroke="#565126" stroke-width="1.5" stroke-linecap="round" stroke-linejoin="round"></path>
              <path d="M33.531,66.019 L26.013,73.535 L33.531,66.019 Z" id="Shape" stroke="#565126" stroke-width="1.5" stroke-linecap="round" stroke-linejoin="round"></path>
              <path d="M30.607,60.053 L23.904,66.755 L30.607,60.053 Z" id="Shape" stroke="#565126" stroke-width="1.5" stroke-linecap="round" stroke-linejoin="round"></path>
              <path d="M28.273,53.499 L22.137,59.634 L28.273,53.499 Z" id="Shape" stroke="#565126" stroke-width="1.5" stroke-linecap="round" stroke-linejoin="round"></path>
              <path d="M26.583,46.298 L20.83,52.054 L26.583,46.298 Z" id="Shape" stroke="#565126" stroke-width="1.5" stroke-linecap="round" stroke-linejoin="round"></path>
              <path d="M19.949,44.046 L24.75,39.243 L19.949,44.046 Z" id="Shape" stroke="#565126" stroke-width="1.5" stroke-linecap="round" stroke-linejoin="round"></path>
              <path d="M30.607,60.053 C41.653,74.867 59.562,74.867 70.609,60.053 C59.563,71.096 41.653,71.096 30.607,60.053 Z" id="Shape" stroke="#565126" stroke-width="1.5" fill="#D0A974" fill-rule="nonzero" stroke-linecap="round" stroke-linejoin="round"></path>
              <path d="M70.609,80 L70.609,57.775 L70.609,80 Z" id="Shape" stroke="#565126" stroke-width="1.5" stroke-linecap="round" stroke-linejoin="round"></path>
              <path d="M58.775,13.333 L58.775,4.442 L58.775,13.333 Z" id="Shape" stroke="#565126" stroke-width="1.5" stroke-linecap="round" stroke-linejoin="round"></path>
              <path d="M72.11,26.666 L81,26.666 L72.11,26.666 Z" id="Shape" stroke="#565126" stroke-width="1.5" stroke-linecap="round" stroke-linejoin="round"></path>
              <path d="M36.015,3.903 L49.347,17.238 L36.015,3.903 Z" id="Shape" stroke="#565126" stroke-width="1.5" stroke-linecap="round" stroke-linejoin="round"></path>
              <path d="M68.205,17.236 L81,4.442 L68.205,17.236 Z" id="Shape" stroke="#565126" stroke-width="1.5" stroke-linecap="round" stroke-linejoin="round"></path>
              <path d="M49.229,3.619 L53.674,14.348 L49.229,3.619 Z" id="Shape" stroke="#565126" stroke-width="1.5" stroke-linecap="round" stroke-linejoin="round"></path>
              <path d="M71.096,21.563 L81,17.46 L71.096,21.563 Z" id="Shape" stroke="#565126" stroke-width="1.5" stroke-linecap="round" stroke-linejoin="round"></path>
              <path d="M63.878,14.348 L68.321,3.619 L63.878,14.348 Z" id="Shape" stroke="#565126" stroke-width="1.5" stroke-linecap="round" stroke-linejoin="round"></path>
              <path d="M56.174,13.59 L53.47,0 L56.174,13.59 Z" id="Shape" stroke="#565126" stroke-width="1.5" stroke-linecap="round" stroke-linejoin="round"></path>
              <path d="M71.853,24.065 L78.52,22.738 L71.853,24.065 Z" id="Shape" stroke="#565126" stroke-width="1.5" stroke-linecap="round" stroke-linejoin="round"></path>
              <path d="M47.69,19.26 L18.866,0 L47.69,19.26 Z" id="Shape" stroke="#565126" stroke-width="1.5" stroke-linecap="round" stroke-linejoin="round"></path>
              <path d="M66.183,15.58 L76.593,0 L66.183,15.58 Z" id="Shape" stroke="#565126" stroke-width="1.5" stroke-linecap="round" stroke-linejoin="round"></path>
              <path d="M51.368,15.58 L40.958,0 L51.368,15.58 Z" id="Shape" stroke="#565126" stroke-width="1.5" stroke-linecap="round" stroke-linejoin="round"></path>
              <path d="M69.863,19.258 L78.751,13.318 L69.863,19.258 Z" id="Shape" stroke="#565126" stroke-width="1.5" stroke-linecap="round" stroke-linejoin="round"></path>
              <path d="M35.688,17.104 L9.023,6.057 L35.688,17.104 Z" id="Shape" stroke="#565126" stroke-width="1.5" stroke-linecap="round" stroke-linejoin="round"></path>
              <path d="M46.458,21.565 L38.846,18.41 L46.458,21.565 Z" id="Shape" stroke="#565126" stroke-width="1.5" stroke-linecap="round" stroke-linejoin="round"></path>
              <path d="M61.378,13.59 L64.081,0 L61.378,13.59 Z" id="Shape" stroke="#565126" stroke-width="1.5" stroke-linecap="round" stroke-linejoin="round"></path>
              <path d="M81,44.443 L80.998,44.443 C78.25,43.301 75.072,43.214 72.11,44.443 C69.148,45.672 65.97,45.581 63.224,44.443 L63.221,44.443 C60.473,43.301 57.295,43.214 54.33,44.443 L54.333,44.443 L54.33,44.443 C57.295,43.214 60.473,43.301 63.221,44.443 L63.224,44.443 C65.97,45.581 69.148,45.672 72.11,44.443 C75.072,43.214 78.25,43.301 80.998,44.443 L81,44.443 Z" id="Shape" stroke="#565126" stroke-width="1.5" stroke-linecap="round" stroke-linejoin="round"></path>
              <path d="M45.445,48.892 L45.445,48.888 C48.191,50.027 51.373,50.117 54.334,48.888 L54.331,48.888 C57.296,47.659 60.474,47.747 63.222,48.888 L63.225,48.888 C65.971,50.027 69.149,50.117 72.111,48.888 C75.073,47.659 78.251,47.747 80.999,48.888 L81,48.888 L80.998,48.888 C78.25,47.747 75.072,47.659 72.11,48.888 C69.148,50.117 65.97,50.027 63.224,48.888 L63.221,48.888 C60.473,47.747 57.295,47.659 54.33,48.888 L54.333,48.888 C51.372,50.117 48.19,50.027 45.444,48.888 L45.444,48.892 L45.445,48.892 Z" id="Shape" stroke="#565126" stroke-width="1.5" stroke-linecap="round" stroke-linejoin="round"></path>
              <path d="M36.558,53.334 C39.518,52.105 42.697,52.194 45.445,53.334 L45.445,53.331 C48.191,54.472 51.373,54.562 54.334,53.331 L54.331,53.331 C57.296,52.102 60.474,52.191 63.222,53.331 L63.225,53.331 C65.971,54.472 69.149,54.562 72.111,53.331 C75.073,52.102 78.251,52.191 80.999,53.331 L81,53.331 L80.998,53.331 C78.25,52.191 75.072,52.102 72.11,53.331 C69.148,54.562 65.97,54.472 63.224,53.331 L63.221,53.331 C60.473,52.191 57.295,52.102 54.33,53.331 L54.333,53.331 C51.372,54.562 48.19,54.472 45.444,53.331 L45.444,53.334 C42.697,52.194 39.519,52.104 36.558,53.334 Z" id="Shape" stroke="#565126" stroke-width="1.5" stroke-linecap="round" stroke-linejoin="round"></path>
              <path d="M1,71.108 C3.748,72.25 6.926,72.337 9.888,71.108 C12.85,69.879 16.028,69.967 18.775,71.108 L18.777,71.108 C20.842,71.967 23.151,72.226 25.428,71.787 C23.151,72.226 20.843,71.968 18.777,71.108 L18.775,71.108 C16.027,69.967 12.849,69.879 9.888,71.108 C6.927,72.337 3.748,72.25 1,71.108 Z" id="Shape" stroke="#565126" stroke-width="1.5" stroke-linecap="round" stroke-linejoin="round"></path>
              <path d="M1,66.664 C3.748,67.805 6.926,67.893 9.888,66.664 C12.849,65.435 16.028,65.525 18.775,66.664 L18.777,66.664 C20.447,67.357 22.277,67.655 24.119,67.513 C22.276,67.656 20.447,67.358 18.777,66.664 L18.775,66.664 C16.027,65.525 12.849,65.435 9.888,66.664 C6.926,67.893 3.748,67.805 1,66.664 Z" id="Shape" stroke="#565126" stroke-width="1.5" stroke-linecap="round" stroke-linejoin="round"></path>
              <path d="M1,62.222 C3.748,63.36 6.926,63.451 9.888,62.222 C12.849,60.99 16.028,61.08 18.775,62.222 L18.777,62.222 C20.092,62.766 21.508,63.065 22.949,63.097 C21.508,63.065 20.093,62.766 18.777,62.222 L18.775,62.222 C16.027,61.08 12.849,60.99 9.888,62.222 C6.926,63.45 3.748,63.359 1,62.222 Z" id="Shape" stroke="#565126" stroke-width="1.5" stroke-linecap="round" stroke-linejoin="round"></path>
              <path d="M1.223,54.478 C10.832,50.491 18.925,42.847 23.222,32.479 C13.608,36.464 5.519,44.109 1.223,54.478 Z" id="Shape" stroke="#565126" stroke-width="1.5" stroke-linecap="round" stroke-linejoin="round"></path>
              <path d="M15.604,36.673 C17.998,35.015 20.542,33.59 23.222,32.479 C17.086,26.341 7.137,26.343 1,32.479 C4.962,36.441 10.514,37.829 15.604,36.673 Z" id="Shape" stroke="#565126" stroke-width="1.5" stroke-linecap="round" stroke-linejoin="round"></path>
              <path d="M31.636,30.02 C29.202,31.568 26.322,32.479 23.225,32.479 L23.223,32.479 C26.318,32.479 29.193,33.387 31.624,34.93 C39.022,36.26 46.873,35.569 54.332,32.479 C47.279,29.562 39.417,28.624 31.636,30.02 Z" id="Shape" stroke="#565126" stroke-width="1.5" stroke-linecap="round" stroke-linejoin="round"></path>
              <path d="M16.833,28.611 C19.168,29.345 21.371,30.628 23.221,32.479 C20.806,26.652 16.173,21.75 9.888,19.145 C11.391,22.769 13.752,26.033 16.833,28.611 Z" id="Shape" stroke="#565126" stroke-width="1.5" stroke-linecap="round" stroke-linejoin="round"></path>
              <path d="M24.898,25.441 C25.187,21.889 24.679,18.22 23.222,14.701 C20.949,20.194 20.769,26.552 23.22,32.476 C23.222,29.946 23.834,27.561 24.898,25.441 Z" id="Shape" stroke="#565126" stroke-width="1.5" stroke-linecap="round" stroke-linejoin="round"></path>
              <path d="M38.9330017,16.763 C30.256,16.763 23.222,23.8 23.222,32.479 C31.898,32.479 38.937,25.443 38.9330017,16.763 Z" id="Shape" stroke="#565126" stroke-width="1.5" stroke-linecap="round" stroke-linejoin="round"></path>
              <path d="M38.938,48.1910017 C38.938,39.515 31.9,32.48 23.222,32.48 C23.222,41.157 30.256,48.195 38.938,48.1910017 Z" id="Shape" stroke="#565126" stroke-width="1.5" stroke-linecap="round" stroke-linejoin="round"></path>
              <path d="M58.775,13.333 C51.413,13.333 45.443,19.303 45.443,26.666 C45.443,27.827 45.606,28.945 45.884,30.019 C48.785,30.536 51.62,31.358 54.331,32.479 C52.246,33.343 50.129,34 48,34.496 C50.426,37.826 54.343,39.998 58.774,39.998 C66.139,39.998 72.109,34.029 72.109,26.665 C72.11,19.302 66.141,13.333 58.775,13.333 Z" id="Shape" stroke="#565126" stroke-width="1.5" stroke-linecap="round" stroke-linejoin="round"></path>
              <path d="M25.917,41.28 C24.214,38.769 23.221,35.74 23.221,32.479 C22.24,34.847 21.041,37.05 19.691,39.121 L19.69,39.123 C20.107,52.795 22.897,66.611 28.44,80 L44.048,79.996 C33.944,69.886 27.279,56.346 25.917,41.28 Z" id="Shape" stroke="#565126" stroke-width="1.5" stroke-linecap="round" stroke-linejoin="round"></path>
            </g>
          </g>
        </g>
      </g>
    </g>
  </g>
</svg>
