
<svg width="82px" height="82px" viewBox="0 0 82 82" version="1.1" xmlns="http://www.w3.org/2000/svg" xmlns:xlink="http://www.w3.org/1999/xlink">
  <!-- Generator: Sketch 51.2 (57519) - http://www.bohemiancoding.com/sketch -->
  <desc>Created with Sketch.</desc>
  <defs></defs>
  <g id="Hifi-Mockups" stroke="none" stroke-width="1" fill="none" fill-rule="evenodd">
    <g id="Landing-0.4" transform="translate(-1069.000000, -841.000000)">
      <g id="Differences" transform="translate(0.000000, 768.000000)">
        <g id="differences-content" transform="translate(150.000000, 61.000000)">
          <g id="curated-properties" transform="translate(780.000000, 13.000000)">
            <g id="Bungalow,-house,-villa,-home,-cottage" transform="translate(140.000000, 0.000000)">
              <rect id="Rectangle-path" stroke="#565126" stroke-width="1.5" fill="#E0C794" fill-rule="nonzero" stroke-linecap="round" stroke-linejoin="round" x="44.446" y="31.112" width="31.109" height="26.666"></rect>
              <rect id="Rectangle-path" fill="#C2AE82" fill-rule="nonzero" x="72.025" y="31.112" width="3.53" height="26.667"></rect>
              <polygon id="Shape" stroke="#565126" stroke-width="1.5" fill="#EBE4D2" fill-rule="nonzero" stroke-linecap="round" stroke-linejoin="round" points="71.111 40 57.777 40 53.332 35.555 66.665 35.555"></polygon>
              <rect id="Rectangle-path" stroke="#565126" stroke-width="1.5" fill="#D0A974" fill-rule="nonzero" stroke-linecap="round" stroke-linejoin="round" x="40" y="57.777" width="39.998" height="4.445"></rect>
              <rect id="Rectangle-path" fill="#B59366" fill-rule="nonzero" x="72.94" y="57.777" width="7.058" height="4.445"></rect>
              <rect id="Rectangle-path" stroke="#565126" stroke-width="1.5" fill="#D0A974" fill-rule="nonzero" stroke-linecap="round" stroke-linejoin="round" x="0" y="57.777" width="40" height="4.445"></rect>
              <rect id="Rectangle-path" fill="#B59366" fill-rule="nonzero" x="32.941" y="57.777" width="7.059" height="4.445"></rect>
              <polygon id="Shape" stroke="#565126" stroke-width="1.5" fill="#D0A974" fill-rule="nonzero" stroke-linecap="round" stroke-linejoin="round" points="0.003 34.923 20.001 17.779 59.999 17.779 40 34.922"></polygon>
              <polygon id="Shape" fill="#B59366" fill-rule="nonzero" points="2.748 32.57 0.003 34.923 40 34.922 42.744 32.569"></polygon>
              <path d="M6.669,34.923 L26.668,17.778 L6.669,34.923 Z" id="Shape" stroke="#565126" stroke-width="1.5" stroke-linecap="round" stroke-linejoin="round"></path>
              <path d="M13.335,34.923 L33.333,17.778 L13.335,34.923 Z" id="Shape" stroke="#565126" stroke-width="1.5" stroke-linecap="round" stroke-linejoin="round"></path>
              <path d="M20.001,34.923 L40,17.779 L20.001,34.923 Z" id="Shape" stroke="#565126" stroke-width="1.5" stroke-linecap="round" stroke-linejoin="round"></path>
              <path d="M26.668,34.923 L46.668,17.778 L26.668,34.923 Z" id="Shape" stroke="#565126" stroke-width="1.5" stroke-linecap="round" stroke-linejoin="round"></path>
              <polygon id="Shape" stroke="#565126" stroke-width="1.5" fill="#E0C794" fill-rule="nonzero" stroke-linecap="round" stroke-linejoin="round" points="40 34.922 4.448 34.923 4.448 57.777 44.446 57.777 44.446 31.112 44.446 31.112"></polygon>
              <polygon id="Shape" stroke="#565126" stroke-width="1.5" fill="#E0C794" fill-rule="nonzero" stroke-linecap="round" stroke-linejoin="round" points="75.556 31.112 44.446 31.112 59.999 17.779"></polygon>
              <polygon id="Shape" fill="#C2AE82" fill-rule="nonzero" points="59.999 17.779 58.234 19.291 72.025 31.112 75.556 31.112"></polygon>
              <polygon id="Shape" stroke="#565126" stroke-width="1.5" fill="#A29061" fill-rule="nonzero" stroke-linecap="round" stroke-linejoin="round" points="80 35.557 75.556 35.557 75.556 31.112"></polygon>
              <polygon id="Shape" stroke="#565126" stroke-width="1.5" fill="#EBE4D2" fill-rule="nonzero" stroke-linecap="round" stroke-linejoin="round" points="32.222 43.334 7.781 43.334 12.224 38.891 36.667 38.891"></polygon>
              <polygon id="Shape" fill="#CCC7B8" fill-rule="nonzero" points="31.961 38.891 27.516 43.334 32.222 43.334 36.667 38.891"></polygon>
              <polygon id="Shape" stroke="#565126" stroke-width="1.5" fill="#A29061" fill-rule="nonzero" stroke-linecap="round" stroke-linejoin="round" points="32.222 43.334 12.224 43.334 12.224 50 36.667 50 36.667 38.891"></polygon>
              <polygon id="Shape" fill="#8D7F54" fill-rule="nonzero" points="33.195 45.688 36.667 42.217 36.667 38.891 32.222 43.334 12.224 43.334 12.224 45.688"></polygon>
              <polygon id="Shape" fill="#8D7F54" fill-rule="nonzero" points="33.138 42.418 33.138 50 36.667 50 36.667 38.891"></polygon>
              <path d="M40,3.821 L40,0 L40,3.821 Z" id="Shape" stroke="#565126" stroke-width="1.5" stroke-linecap="round" stroke-linejoin="round"></path>
              <path d="M29.197,8.294 L26.496,5.593 L29.197,8.294 Z" id="Shape" stroke="#565126" stroke-width="1.5" stroke-linecap="round" stroke-linejoin="round"></path>
              <path d="M50.805,8.294 L53.506,5.593 L50.805,8.294 Z" id="Shape" stroke="#565126" stroke-width="1.5" stroke-linecap="round" stroke-linejoin="round"></path>
              <path d="M25.887,13.252 L22.356,11.793 L25.887,13.252 Z" id="Shape" stroke="#565126" stroke-width="1.5" stroke-linecap="round" stroke-linejoin="round"></path>
              <path d="M45.848,4.98 L47.312,1.452 L45.848,4.98 Z" id="Shape" stroke="#565126" stroke-width="1.5" stroke-linecap="round" stroke-linejoin="round"></path>
              <path d="M34.154,4.98 L32.691,1.452 L34.154,4.98 Z" id="Shape" stroke="#565126" stroke-width="1.5" stroke-linecap="round" stroke-linejoin="round"></path>
              <path d="M54.117,13.252 L57.643,11.788 L54.117,13.252 Z" id="Shape" stroke="#565126" stroke-width="1.5" stroke-linecap="round" stroke-linejoin="round"></path>
              <path d="M51.377,17.779 C50.721,12.072 45.884,7.641 40,7.641 C34.118,7.641 29.281,12.072 28.623,17.779 L51.377,17.779 Z" id="Shape" stroke="#565126" stroke-width="1.5" fill="#D95C54" fill-rule="nonzero" stroke-linecap="round" stroke-linejoin="round"></path>
              <path d="M40,7.641 C39.193,7.641 38.406,7.732 37.647,7.891 C42.424,8.89 46.105,12.855 46.671,17.779 L51.376,17.779 C50.721,12.072 45.884,7.641 40,7.641 Z" id="Shape" fill="#BE5049" fill-rule="nonzero"></path>
              <polygon id="Shape" stroke="#565126" stroke-width="1.5" fill="#A29061" fill-rule="nonzero" stroke-linecap="round" stroke-linejoin="round" points="57.777 40 53.332 35.555 53.332 57.777 66.665 57.777 66.665 40"></polygon>
              <polygon id="Shape" fill="#8D7F54" fill-rule="nonzero" points="56.803 42.353 66.665 42.353 66.665 40 57.777 40 53.332 35.555 53.332 38.883"></polygon>
              <rect id="Rectangle-path" stroke="#565126" stroke-width="1.5" fill="#A29061" fill-rule="nonzero" stroke-linecap="round" stroke-linejoin="round" x="58.333" y="23.891" width="3.334" height="3.33"></rect>
              <path d="M11.111,78.743 C9.698,78.194 8.2,77.864 6.669,77.766 L6.669,62.223 L11.111,62.223 L11.111,78.743 Z" id="Shape" stroke="#565126" stroke-width="1.5" fill="#EBE4D2" fill-rule="nonzero" stroke-linecap="round" stroke-linejoin="round"></path>
              <path d="M73.332,77.764 C71.844,77.858 70.352,78.179 68.89,78.746 L68.89,62.223 L73.332,62.223 L73.332,77.764 Z" id="Shape" stroke="#565126" stroke-width="1.5" fill="#EBE4D2" fill-rule="nonzero" stroke-linecap="round" stroke-linejoin="round"></path>
              <path d="M51.111,77.737 C49.63,77.766 48.134,78.022 46.668,78.518 L46.668,62.223 L51.111,62.223 L51.111,77.737 Z" id="Shape" stroke="#565126" stroke-width="1.5" fill="#EBE4D2" fill-rule="nonzero" stroke-linecap="round" stroke-linejoin="round"></path>
              <path d="M33.333,78.516 C31.91,78.037 30.416,77.764 28.893,77.732 L28.893,62.223 L33.333,62.223 L33.333,78.516 Z" id="Shape" stroke="#565126" stroke-width="1.5" fill="#EBE4D2" fill-rule="nonzero" stroke-linecap="round" stroke-linejoin="round"></path>
              <path d="M80,78.856 C76.468,77.397 72.381,77.28 68.569,78.86 L68.569,78.856 C64.762,80.432 60.677,80.318 57.144,78.86 L57.141,78.856 C53.611,77.397 49.522,77.28 45.713,78.86 L45.717,78.86 C41.905,80.435 37.818,80.322 34.285,78.86 L34.283,78.856 C30.752,77.397 26.667,77.28 22.856,78.86 L22.859,78.86 C19.05,80.435 14.965,80.322 11.431,78.86 L11.428,78.856 C7.897,77.397 3.811,77.28 0.001,78.86 C3.811,77.28 7.897,77.397 11.428,78.856 L11.431,78.86 C14.965,80.322 19.05,80.435 22.859,78.86 L22.856,78.86 C26.667,77.28 30.752,77.397 34.283,78.856 L34.285,78.86 C37.817,80.322 41.905,80.435 45.717,78.86 L45.713,78.86 C49.522,77.28 53.61,77.397 57.141,78.856 L57.144,78.86 C60.677,80.318 64.762,80.432 68.569,78.856 L68.569,78.86 C72.381,77.28 76.468,77.397 80,78.856 Z" id="Shape" stroke="#565126" stroke-width="1.5" stroke-linecap="round" stroke-linejoin="round"></path>
              <rect id="Rectangle-path" fill="#8D7F54" fill-rule="nonzero" x="63.137" y="40" width="3.528" height="17.778"></rect>
              <polygon id="Shape" fill="#CCC7B8" fill-rule="nonzero" points="66.665 35.555 63.137 35.555 67.581 40 71.111 40"></polygon>
              <polygon id="Shape" fill="#B59366" fill-rule="nonzero" points="52.939 17.779 32.941 34.922 40 34.922 59.999 17.779"></polygon>
              <polygon id="Shape" fill="#C2AE82" fill-rule="nonzero" points="40 34.922 37.387 34.922 37.387 57.777 44.446 57.777 44.446 31.112"></polygon>
              <path d="M8.76,62.223 L8.76,78.055 C9.562,78.221 10.35,78.449 11.112,78.743 L11.112,62.223 L8.76,62.223 Z" id="Shape" fill="#CCC7B8" fill-rule="nonzero"></path>
              <path d="M30.98,62.223 L30.98,77.933 C31.781,78.065 32.566,78.258 33.333,78.516 L33.333,62.223 L30.98,62.223 Z" id="Shape" fill="#CCC7B8" fill-rule="nonzero"></path>
              <path d="M48.758,62.223 L48.758,77.982 C49.542,77.837 50.328,77.753 51.112,77.738 L51.112,62.223 L48.758,62.223 Z" id="Shape" fill="#CCC7B8" fill-rule="nonzero"></path>
              <path d="M70.978,62.223 L70.978,78.109 C71.76,77.931 72.547,77.813 73.332,77.764 L73.332,62.223 L70.978,62.223 Z" id="Shape" fill="#CCC7B8" fill-rule="nonzero"></path>
              <rect id="Rectangle-path" stroke="#565126" stroke-width="1.5" stroke-linecap="round" stroke-linejoin="round" x="44.446" y="31.112" width="31.109" height="26.666"></rect>
              <polygon id="Shape" stroke="#565126" stroke-width="1.5" stroke-linecap="round" stroke-linejoin="round" points="71.111 40 57.777 40 53.332 35.555 66.665 35.555"></polygon>
              <rect id="Rectangle-path" stroke="#565126" stroke-width="1.5" stroke-linecap="round" stroke-linejoin="round" x="40" y="57.777" width="39.998" height="4.445"></rect>
              <rect id="Rectangle-path" stroke="#565126" stroke-width="1.5" stroke-linecap="round" stroke-linejoin="round" x="0" y="57.777" width="40" height="4.445"></rect>
              <polygon id="Shape" stroke="#565126" stroke-width="1.5" stroke-linecap="round" stroke-linejoin="round" points="0.003 34.923 20.001 17.779 59.999 17.779 40 34.922"></polygon>
              <polygon id="Shape" stroke="#565126" stroke-width="1.5" stroke-linecap="round" stroke-linejoin="round" points="40 34.922 4.448 34.923 4.448 57.777 44.446 57.777 44.446 31.112 44.446 31.112"></polygon>
              <polygon id="Shape" stroke="#565126" stroke-width="1.5" stroke-linecap="round" stroke-linejoin="round" points="75.556 31.112 44.446 31.112 59.999 17.779"></polygon>
              <polygon id="Shape" stroke="#565126" stroke-width="1.5" stroke-linecap="round" stroke-linejoin="round" points="32.222 43.334 7.781 43.334 12.224 38.891 36.667 38.891"></polygon>
              <polygon id="Shape" stroke="#565126" stroke-width="1.5" stroke-linecap="round" stroke-linejoin="round" points="32.222 43.334 12.224 43.334 12.224 50 36.667 50 36.667 38.891"></polygon>
              <path d="M51.377,17.779 C50.721,12.072 45.884,7.641 40,7.641 C34.118,7.641 29.281,12.072 28.623,17.779 L51.377,17.779 Z" id="Shape" stroke="#565126" stroke-width="1.5" stroke-linecap="round" stroke-linejoin="round"></path>
              <polygon id="Shape" stroke="#565126" stroke-width="1.5" stroke-linecap="round" stroke-linejoin="round" points="57.777 40 53.332 35.555 53.332 57.777 66.665 57.777 66.665 40"></polygon>
              <path d="M11.111,78.743 C9.698,78.194 8.2,77.864 6.669,77.766 L6.669,62.223 L11.111,62.223 L11.111,78.743 Z" id="Shape" stroke="#565126" stroke-width="1.5" stroke-linecap="round" stroke-linejoin="round"></path>
              <path d="M73.332,77.764 C71.844,77.858 70.352,78.179 68.89,78.746 L68.89,62.223 L73.332,62.223 L73.332,77.764 Z" id="Shape" stroke="#565126" stroke-width="1.5" stroke-linecap="round" stroke-linejoin="round"></path>
              <path d="M51.111,77.737 C49.63,77.766 48.134,78.022 46.668,78.518 L46.668,62.223 L51.111,62.223 L51.111,77.737 Z" id="Shape" stroke="#565126" stroke-width="1.5" stroke-linecap="round" stroke-linejoin="round"></path>
              <path d="M33.333,78.516 C31.91,78.037 30.416,77.764 28.893,77.732 L28.893,62.223 L33.333,62.223 L33.333,78.516 Z" id="Shape" stroke="#565126" stroke-width="1.5" stroke-linecap="round" stroke-linejoin="round"></path>
              <path d="M33.333,34.923 L53.334,17.778 L33.333,34.923 Z" id="Shape" stroke="#565126" stroke-width="1.5" stroke-linecap="round" stroke-linejoin="round"></path>
            </g>
          </g>
        </g>
      </g>
    </g>
  </g>
</svg>
