
<svg width="82px" height="82px" viewBox="0 0 82 82" version="1.1" xmlns="http://www.w3.org/2000/svg" xmlns:xlink="http://www.w3.org/1999/xlink">
  <!-- Generator: Sketch 51.2 (57519) - http://www.bohemiancoding.com/sketch -->
  <desc>Created with Sketch.</desc>
  <defs></defs>
  <g id="Hifi-Mockups" stroke="none" stroke-width="1" fill="none" fill-rule="evenodd">
    <g id="Landing-0.4" transform="translate(-679.000000, -840.000000)">
      <g id="Differences" transform="translate(0.000000, 768.000000)">
        <g id="differences-content" transform="translate(150.000000, 61.000000)">
          <g id="exciting-activities" transform="translate(390.000000, 12.000000)">
            <g id="Diving,-mask,-snorkel" transform="translate(140.000000, 0.000000)">
              <path d="M65.58,18.171 L67.251,29.862 C67.61,32.398 66.088,35.51 63.864,36.781 L55.656,41.474 C53.432,42.745 50.676,41.912 49.53,39.62 L44.383,29.325 C43.239,27.035 41.367,27.035 40.222,29.325 L35.075,39.62 C33.927,41.912 31.173,42.745 28.95,41.474 L20.741,36.781 C18.518,35.51 16.996,32.397 17.358,29.862 L19.027,18.171 C34.544,11.75 51.188,12.218 65.58,18.171 Z" id="Shape" stroke="#565126" stroke-width="1.5" fill="#D95C54" fill-rule="nonzero" stroke-linecap="round" stroke-linejoin="round"></path>
              <path d="M67.251,29.862 L65.58,18.171 C57.892,14.991 49.559,13.394 41.101,13.558 C48.699,13.724 56.153,15.305 63.081,18.171 L64.752,29.862 C65.112,32.398 63.59,35.51 61.365,36.781 L53.158,41.474 C52.841,41.654 52.512,41.783 52.18,41.878 C53.292,42.218 54.541,42.11 55.656,41.474 L63.864,36.781 C66.088,35.51 67.61,32.398 67.251,29.862 Z" id="Shape" fill="#BE5049" fill-rule="nonzero"></path>
              <path d="M22.37,33.929 L30.578,38.621 C30.74,38.713 30.913,38.757 31.099,38.757 C31.464,38.757 31.926,38.571 32.136,38.152 L37.283,27.856 C38.879,24.669 41.324,24.325 42.302,24.325 C43.28,24.325 45.729,24.669 47.323,27.856 L52.469,38.152 C52.679,38.572 53.141,38.757 53.506,38.757 C53.694,38.757 53.867,38.711 54.025,38.623 L62.236,33.929 C63.278,33.335 64.167,31.516 63.995,30.324 L62.599,20.524 C56.072,18.061 49.243,16.814 42.277,16.814 C35.344,16.814 28.529,18.062 22.008,20.524 L20.609,30.325 C20.438,31.516 21.327,33.335 22.37,33.929 Z" id="Shape" stroke="#565126" stroke-width="1.5" fill="#EBE4D2" fill-rule="nonzero" stroke-linecap="round" stroke-linejoin="round"></path>
              <path d="M63.995,30.324 L62.599,20.524 C60.317,19.663 57.995,18.96 55.648,18.397 L57.733,33.02 C57.916,34.281 57.333,35.979 56.438,37.245 L62.237,33.93 C63.278,33.335 64.167,31.516 63.995,30.324 Z" id="Shape" fill="#CCC7B8" fill-rule="nonzero"></path>
              <path d="M49.53,39.621 L44.383,29.326 C43.239,27.036 41.367,27.036 40.222,29.326 L35.075,39.621 C34.445,40.881 33.325,41.68 32.077,41.95 L34.802,48.53 C38.946,44.389 45.659,44.389 49.802,48.53 L52.384,41.921 C51.194,41.621 50.135,40.832 49.53,39.621 Z" id="Shape" stroke="#565126" stroke-width="1.5" fill="#A29061" fill-rule="nonzero" stroke-linecap="round" stroke-linejoin="round"></path>
              <path d="M49.732,39.935 L47.133,46.59 C48.093,47.082 48.997,47.725 49.801,48.529 L52.383,41.92 C51.307,41.648 50.355,40.959 49.732,39.935 Z" id="Shape" fill="#8D7F54" fill-rule="nonzero"></path>
              <path d="M49.53,39.621 L44.383,29.326 C43.239,27.036 41.367,27.036 40.222,29.326 L35.075,39.621 C34.445,40.881 33.325,41.68 32.077,41.95 L33.052,44.305 C34.875,43.782 36.423,42.512 37.311,40.739 L42.302,30.755 L47.294,40.739 C48.166,42.483 49.681,43.735 51.464,44.274 L52.384,41.92 C51.194,41.621 50.135,40.832 49.53,39.621 Z" id="Shape" fill="#8D7F54" fill-rule="nonzero"></path>
              <path d="M72.449,0 L79.927,30.949 C80.023,31.349 80.025,31.766 79.934,32.165 L75.054,53.355 C74.943,53.837 74.698,54.281 74.346,54.632 L63.58,65.4 C63.084,65.896 62.41,66.173 61.709,66.173 L49.802,66.173 L49.802,60.882 L60.615,60.882 L70.068,51.429 L74.636,31.586 L67.306,1.24 L72.449,0 Z" id="Shape" stroke="#565126" stroke-width="1.5" fill="#E0C794" fill-rule="nonzero" stroke-linecap="round" stroke-linejoin="round"></path>
              <path d="M79.927,30.949 L72.449,0 L70.087,0.569 L77.426,30.948 C77.523,31.348 77.525,31.765 77.433,32.164 L72.554,53.354 C72.442,53.836 72.198,54.28 71.846,54.631 L61.08,65.4 C60.584,65.896 59.91,66.173 59.209,66.173 L61.709,66.173 C62.41,66.173 63.084,65.896 63.58,65.4 L74.346,54.632 C74.698,54.28 74.943,53.837 75.054,53.355 L79.934,32.165 C80.024,31.766 80.022,31.349 79.927,30.949 Z" id="Shape" fill="#C2AE82" fill-rule="nonzero"></path>
              <path d="M49.802,66.029 C49.802,67.404 48.678,68.527 47.303,68.527 L37.304,68.527 C35.929,68.527 34.802,67.404 34.802,66.029 L34.802,61.027 C34.802,59.652 35.929,58.529 37.304,58.529 L47.303,58.529 C48.678,58.529 49.802,59.652 49.802,61.027 L49.802,66.029 Z" id="Shape" stroke="#565126" stroke-width="1.5" fill="#D0A974" fill-rule="nonzero" stroke-linecap="round" stroke-linejoin="round"></path>
              <path d="M47.303,58.529 L42.303,58.529 C43.678,58.529 44.803,59.652 44.803,61.027 L44.803,66.029 C44.803,67.404 43.678,68.527 42.303,68.527 L47.303,68.527 C48.678,68.527 49.802,67.404 49.802,66.029 L49.802,61.027 C49.802,59.652 48.678,58.529 47.303,58.529 Z" id="Shape" fill="#B59366" fill-rule="nonzero"></path>
              <polygon id="Shape" stroke="#565126" stroke-width="1.5" fill="#A29061" fill-rule="nonzero" stroke-linecap="round" stroke-linejoin="round" points="44.802 58.529 39.803 58.529 37.304 53.527 47.303 53.527"></polygon>
              <polygon id="Shape" fill="#8D7F54" fill-rule="nonzero" points="43.553 53.527 41.052 58.529 44.802 58.529 47.303 53.527"></polygon>
              <path d="M34.999,74.164 C32.082,71.35 28.505,69.568 24.752,68.789 C22.736,72.084 22.736,76.252 24.752,79.541 C28.505,78.764 32.082,76.982 34.999,74.168 L34.999,74.164 Z" id="Shape" stroke="#565126" stroke-width="1.5" fill="#E0C794" fill-rule="nonzero" stroke-linecap="round" stroke-linejoin="round"></path>
              <path d="M5.832,74.168 C10.969,79.129 18.14,80.91 24.752,79.541 C22.736,76.252 22.736,72.084 24.752,68.789 C18.14,67.426 10.969,69.203 5.832,74.164 L5.832,74.168 Z" id="Shape" stroke="#565126" stroke-width="1.5" fill="#EBE4D2" fill-rule="nonzero" stroke-linecap="round" stroke-linejoin="round"></path>
              <path d="M24.752,75.791 C24.314,75.881 23.872,75.957 23.429,76.02 C23.654,77.247 24.08,78.446 24.752,79.541 C28.505,78.764 32.082,76.982 34.999,74.168 L34.999,74.164 C34.288,73.476 33.536,72.853 32.751,72.289 C30.325,74.039 27.589,75.203 24.752,75.791 Z" id="Shape" fill="#C2AE82" fill-rule="nonzero"></path>
              <path d="M8.083,72.291 C7.299,72.855 6.545,73.477 5.832,74.164 L5.832,74.168 C10.969,79.129 18.14,80.91 24.752,79.541 C24.08,78.445 23.653,77.246 23.429,76.02 C18.124,76.773 12.576,75.533 8.083,72.291 Z" id="Shape" fill="#CCC7B8" fill-rule="nonzero"></path>
              <path d="M0,80 C1.608,76.109 1.491,71.937 0,68.332 L5.832,74.168 L0,80 Z" id="Shape" stroke="#565126" stroke-width="1.5" fill="#D95C54" fill-rule="nonzero" stroke-linecap="round" stroke-linejoin="round"></path>
              <path d="M28.439,72.707 L26.978,72.707 L28.439,72.707 Z" id="Shape" stroke="#565126" stroke-width="1.5" stroke-linecap="round" stroke-linejoin="round"></path>
              <circle id="Oval" stroke="#565126" stroke-width="1.5" fill="#EBE4D2" fill-rule="nonzero" stroke-linecap="round" stroke-linejoin="round" cx="2.499" cy="2.5" r="2.499"></circle>
              <path d="M2.497,0 C2.166,0 1.851,0.068 1.56,0.186 C2.475,0.557 3.123,1.452 3.123,2.499 C3.123,3.548 2.476,4.443 1.56,4.814 C1.85,4.932 2.165,5 2.497,5 C3.879,5 4.998,3.88 4.998,2.499 C4.998,1.12 3.879,0 2.497,0 Z" id="Shape" fill="#CCC7B8" fill-rule="nonzero"></path>
              <path d="M19.999,7.499 C19.999,10.262 17.762,12.501 14.997,12.501 C12.237,12.501 9.997,10.262 9.997,7.499 C9.997,4.74 12.237,2.5 14.997,2.5 C17.761,2.5 19.999,4.739 19.999,7.499 Z" id="Shape" stroke="#565126" stroke-width="1.5" fill="#EBE4D2" fill-rule="nonzero" stroke-linecap="round" stroke-linejoin="round"></path>
              <path d="M14.997,2.5 C14.334,2.5 13.703,2.631 13.123,2.867 C14.956,3.609 16.249,5.403 16.249,7.499 C16.249,9.598 14.956,11.392 13.123,12.134 C13.703,12.369 14.334,12.501 14.997,12.501 C17.762,12.501 19.999,10.262 19.999,7.499 C19.999,4.739 17.761,2.5 14.997,2.5 Z" id="Shape" fill="#CCC7B8" fill-rule="nonzero"></path>
              <circle id="Oval" stroke="#565126" stroke-width="1.5" fill="#EBE4D2" fill-rule="nonzero" stroke-linecap="round" stroke-linejoin="round" cx="7.498" cy="17.5" r="2.5"></circle>
              <path d="M7.498,15 C7.166,15 6.852,15.068 6.56,15.185 C7.476,15.556 8.123,16.451 8.123,17.499 C8.123,18.548 7.477,19.444 6.56,19.815 C6.851,19.932 7.165,20 7.498,20 C8.879,20 9.997,18.88 9.997,17.499 C9.997,16.12 8.879,15 7.498,15 Z" id="Shape" fill="#CCC7B8" fill-rule="nonzero"></path>
              <circle id="Oval" stroke="#565126" stroke-width="1.5" fill="#EBE4D2" fill-rule="nonzero" stroke-linecap="round" stroke-linejoin="round" cx="22.498" cy="50" r="3.75"></circle>
              <path d="M22.499,46.25 C21.813,46.25 21.178,46.447 20.624,46.77 C21.74,47.42 22.499,48.616 22.499,50 C22.499,51.384 21.741,52.582 20.624,53.232 C21.178,53.552 21.812,53.752 22.499,53.752 C24.571,53.752 26.248,52.072 26.248,50 C26.248,47.93 24.571,46.25 22.499,46.25 Z" id="Shape" fill="#CCC7B8" fill-rule="nonzero"></path>
              <circle id="Oval" stroke="#565126" stroke-width="1.5" fill="#EBE4D2" fill-rule="nonzero" stroke-linecap="round" stroke-linejoin="round" cx="27.5" cy="59.998" r="2.5"></circle>
              <path d="M27.499,57.5 C27.041,57.5 26.617,57.631 26.249,57.848 C26.994,58.28 27.499,59.077 27.499,59.998 C27.499,60.922 26.994,61.719 26.249,62.152 C26.617,62.367 27.041,62.498 27.499,62.498 C28.88,62.498 30,61.379 30,59.998 C30,58.619 28.88,57.5 27.499,57.5 Z" id="Shape" fill="#CCC7B8" fill-rule="nonzero"></path>
              <circle id="Oval" stroke="#565126" stroke-width="1.5" stroke-linecap="round" stroke-linejoin="round" cx="2.499" cy="2.5" r="2.499"></circle>
              <path d="M19.999,7.499 C19.999,10.262 17.762,12.501 14.997,12.501 C12.237,12.501 9.997,10.262 9.997,7.499 C9.997,4.74 12.237,2.5 14.997,2.5 C17.761,2.5 19.999,4.739 19.999,7.499 Z" id="Shape" stroke="#565126" stroke-width="1.5" stroke-linecap="round" stroke-linejoin="round"></path>
              <circle id="Oval" stroke="#565126" stroke-width="1.5" stroke-linecap="round" stroke-linejoin="round" cx="7.498" cy="17.5" r="2.5"></circle>
              <circle id="Oval" stroke="#565126" stroke-width="1.5" stroke-linecap="round" stroke-linejoin="round" cx="22.498" cy="50" r="3.75"></circle>
              <circle id="Oval" stroke="#565126" stroke-width="1.5" stroke-linecap="round" stroke-linejoin="round" cx="27.5" cy="59.998" r="2.5"></circle>
              <path d="M65.58,18.171 L67.251,29.862 C67.61,32.398 66.088,35.51 63.864,36.781 L55.656,41.474 C53.432,42.745 50.676,41.912 49.53,39.62 L44.383,29.325 C43.239,27.035 41.367,27.035 40.222,29.325 L35.075,39.62 C33.927,41.912 31.173,42.745 28.95,41.474 L20.741,36.781 C18.518,35.51 16.996,32.397 17.358,29.862 L19.027,18.171 C34.544,11.75 51.188,12.218 65.58,18.171 Z" id="Shape" stroke="#565126" stroke-width="1.5" stroke-linecap="round" stroke-linejoin="round"></path>
              <path d="M22.37,33.929 L30.578,38.621 C30.74,38.713 30.913,38.757 31.099,38.757 C31.464,38.757 31.926,38.571 32.136,38.152 L37.283,27.856 C38.879,24.669 41.324,24.325 42.302,24.325 C43.28,24.325 45.729,24.669 47.323,27.856 L52.469,38.152 C52.679,38.572 53.141,38.757 53.506,38.757 C53.694,38.757 53.867,38.711 54.025,38.623 L62.236,33.929 C63.278,33.335 64.167,31.516 63.995,30.324 L62.599,20.524 C56.072,18.061 49.243,16.814 42.277,16.814 C35.344,16.814 28.529,18.062 22.008,20.524 L20.609,30.325 C20.438,31.516 21.327,33.335 22.37,33.929 Z" id="Shape" stroke="#565126" stroke-width="1.5" stroke-linecap="round" stroke-linejoin="round"></path>
              <path d="M49.53,39.621 L44.383,29.326 C43.239,27.036 41.367,27.036 40.222,29.326 L35.075,39.621 C34.445,40.881 33.325,41.68 32.077,41.95 L34.802,48.53 C38.946,44.389 45.659,44.389 49.802,48.53 L52.384,41.921 C51.194,41.621 50.135,40.832 49.53,39.621 Z" id="Shape" stroke="#565126" stroke-width="1.5" stroke-linecap="round" stroke-linejoin="round"></path>
              <path d="M72.449,0 L79.927,30.949 C80.023,31.349 80.025,31.766 79.934,32.165 L75.054,53.355 C74.943,53.837 74.698,54.281 74.346,54.632 L63.58,65.4 C63.084,65.896 62.41,66.173 61.709,66.173 L49.802,66.173 L49.802,60.882 L60.615,60.882 L70.068,51.429 L74.636,31.586 L67.306,1.24 L72.449,0 Z" id="Shape" stroke="#565126" stroke-width="1.5" stroke-linecap="round" stroke-linejoin="round"></path>
              <path d="M49.802,66.029 C49.802,67.404 48.678,68.527 47.303,68.527 L37.304,68.527 C35.929,68.527 34.802,67.404 34.802,66.029 L34.802,61.027 C34.802,59.652 35.929,58.529 37.304,58.529 L47.303,58.529 C48.678,58.529 49.802,59.652 49.802,61.027 L49.802,66.029 Z" id="Shape" stroke="#565126" stroke-width="1.5" stroke-linecap="round" stroke-linejoin="round"></path>
              <polygon id="Shape" stroke="#565126" stroke-width="1.5" stroke-linecap="round" stroke-linejoin="round" points="44.802 58.529 39.803 58.529 37.304 53.527 47.303 53.527"></polygon>
              <path d="M34.999,74.164 C32.082,71.35 28.505,69.568 24.752,68.789 C22.736,72.084 22.736,76.252 24.752,79.541 C28.505,78.764 32.082,76.982 34.999,74.168 L34.999,74.164 Z" id="Shape" stroke="#565126" stroke-width="1.5" stroke-linecap="round" stroke-linejoin="round"></path>
              <path d="M5.832,74.168 C10.969,79.129 18.14,80.91 24.752,79.541 C22.736,76.252 22.736,72.084 24.752,68.789 C18.14,67.426 10.969,69.203 5.832,74.164 L5.832,74.168 Z" id="Shape" stroke="#565126" stroke-width="1.5" stroke-linecap="round" stroke-linejoin="round"></path>
            </g>
          </g>
        </g>
      </g>
    </g>
  </g>
</svg>
